<svg width="228" height="38" viewBox="0 0 228 38" fill="none" xmlns="http://www.w3.org/2000/svg">
<g filter="url(#filter0_d_8_1050)">
<rect x="2" y="4" width="220" height="28" rx="14" fill="#EE3724"/>
</g>
<path d="M30.6299 23L27.4854 13.0469H28.8389L31.0264 20.4775L31.1699 20.9629L31.3203 20.4639L33.5215 13.0469H34.8682L31.7305 23H30.6299ZM39.8652 23.1367C39.3457 23.1367 38.8672 23.0479 38.4297 22.8701C37.9967 22.6924 37.6253 22.444 37.3154 22.125C37.0055 21.806 36.764 21.4277 36.5908 20.9902C36.4176 20.5527 36.3311 20.0765 36.3311 19.5615V19.2744C36.3311 18.6774 36.4268 18.1442 36.6182 17.6748C36.8096 17.2008 37.0648 16.7998 37.3838 16.4717C37.6982 16.1481 38.056 15.8997 38.457 15.7266C38.8626 15.5534 39.2773 15.4668 39.7012 15.4668C40.2344 15.4668 40.6992 15.5602 41.0957 15.7471C41.4967 15.9294 41.8294 16.1823 42.0938 16.5059C42.3581 16.834 42.554 17.2191 42.6816 17.6611C42.8138 18.1032 42.8799 18.5817 42.8799 19.0967V19.6641H37.5957V19.7119C37.6276 20.0719 37.6982 20.3887 37.8076 20.6621C37.9215 20.9355 38.0765 21.1771 38.2725 21.3867C38.473 21.61 38.7145 21.7855 38.9971 21.9131C39.2796 22.0407 39.5918 22.1045 39.9336 22.1045C40.3848 22.1045 40.7858 22.0133 41.1367 21.8311C41.4876 21.6488 41.7793 21.4072 42.0117 21.1064L42.7842 21.708C42.5381 22.0817 42.1689 22.4144 41.6768 22.7061C41.1891 22.9932 40.5853 23.1367 39.8652 23.1367ZM39.7012 16.5059C39.446 16.5059 39.2044 16.5537 38.9766 16.6494C38.7487 16.7406 38.5436 16.875 38.3613 17.0527C38.179 17.235 38.0241 17.4583 37.8965 17.7227C37.7734 17.9824 37.6868 18.2832 37.6367 18.625H41.6152V18.5635C41.6152 18.3356 41.5719 18.0918 41.4854 17.832C41.3988 17.5677 41.278 17.3398 41.123 17.1484C40.9681 16.957 40.7721 16.8021 40.5352 16.6836C40.3027 16.5651 40.0247 16.5059 39.7012 16.5059ZM42.1143 13.9629H37.2334V12.9854H42.1143V13.9629ZM49.9209 21.0381C49.9209 20.8877 49.8913 20.7533 49.832 20.6348C49.7728 20.5117 49.6725 20.4001 49.5312 20.2998C49.39 20.1995 49.2031 20.1084 48.9707 20.0264C48.7383 19.9398 48.4489 19.8623 48.1025 19.7939C47.6787 19.7074 47.2913 19.6025 46.9404 19.4795C46.5941 19.3564 46.2979 19.2083 46.0518 19.0352C45.8011 18.8665 45.6074 18.6683 45.4707 18.4404C45.334 18.208 45.2656 17.9391 45.2656 17.6338C45.2656 17.333 45.3363 17.0527 45.4775 16.793C45.6188 16.5286 45.8171 16.2985 46.0723 16.1025C46.3275 15.9066 46.6305 15.7516 46.9814 15.6377C47.3369 15.5238 47.7266 15.4668 48.1504 15.4668C48.6061 15.4668 49.0163 15.526 49.3809 15.6445C49.7454 15.763 50.0553 15.9271 50.3105 16.1367C50.5658 16.3464 50.7617 16.5924 50.8984 16.875C51.0397 17.153 51.1104 17.4538 51.1104 17.7773H49.8457C49.8457 17.6178 49.8047 17.4629 49.7227 17.3125C49.6406 17.1576 49.5267 17.0208 49.3809 16.9023C49.235 16.7839 49.0573 16.6882 48.8477 16.6152C48.6426 16.5423 48.4102 16.5059 48.1504 16.5059C47.8815 16.5059 47.6445 16.5355 47.4395 16.5947C47.2389 16.654 47.0726 16.7337 46.9404 16.834C46.8037 16.9342 46.7012 17.0505 46.6328 17.1826C46.5645 17.3148 46.5303 17.4515 46.5303 17.5928C46.5303 17.7386 46.5576 17.8685 46.6123 17.9824C46.667 18.0964 46.7627 18.1989 46.8994 18.29C47.0316 18.3812 47.2093 18.4632 47.4326 18.5361C47.6605 18.609 47.9476 18.6797 48.2939 18.748C48.7497 18.8438 49.1576 18.9554 49.5176 19.083C49.8776 19.2061 50.1807 19.3542 50.4268 19.5273C50.6729 19.7051 50.8597 19.9102 50.9873 20.1426C51.1195 20.375 51.1855 20.6439 51.1855 20.9492C51.1855 21.2773 51.1104 21.5758 50.96 21.8447C50.8141 22.1136 50.609 22.3438 50.3447 22.5352C50.0804 22.7266 49.7637 22.8747 49.3945 22.9795C49.0254 23.0843 48.6221 23.1367 48.1846 23.1367C47.6833 23.1367 47.2367 23.0706 46.8447 22.9385C46.4528 22.8018 46.1224 22.6217 45.8535 22.3984C45.5801 22.1797 45.3704 21.9245 45.2246 21.6328C45.0833 21.3411 45.0127 21.0381 45.0127 20.7236H46.2773C46.2956 20.9834 46.3639 21.2021 46.4824 21.3799C46.6055 21.5576 46.7581 21.7012 46.9404 21.8105C47.1182 21.9199 47.3164 21.9974 47.5352 22.043C47.7539 22.0885 47.9704 22.1113 48.1846 22.1113C48.5218 22.1113 48.8158 22.0726 49.0664 21.9951C49.3171 21.9131 49.513 21.8014 49.6543 21.6602C49.7409 21.5736 49.807 21.4779 49.8525 21.373C49.8981 21.2682 49.9209 21.1566 49.9209 21.0381ZM56.4082 13.8125V15.6035H59.2246V16.5811H56.4082V20.6006C56.4082 20.8877 56.4447 21.1247 56.5176 21.3115C56.5905 21.4984 56.6908 21.6465 56.8184 21.7559C56.946 21.8698 57.0918 21.9495 57.2559 21.9951C57.4245 22.0407 57.6022 22.0635 57.7891 22.0635C57.9258 22.0635 58.0671 22.0566 58.2129 22.043C58.3587 22.0247 58.5023 22.0042 58.6436 21.9814C58.7803 21.9587 58.9079 21.9359 59.0264 21.9131C59.1494 21.8857 59.2497 21.863 59.3271 21.8447L59.5049 22.7402C59.4001 22.804 59.2725 22.861 59.1221 22.9111C58.9717 22.9567 58.8076 22.9954 58.6299 23.0273C58.4521 23.0638 58.263 23.0911 58.0625 23.1094C57.8665 23.1276 57.6706 23.1367 57.4746 23.1367C57.1465 23.1367 56.8389 23.0911 56.5518 23C56.2692 22.9043 56.0231 22.7539 55.8135 22.5488C55.6038 22.3483 55.4375 22.0885 55.3145 21.7695C55.196 21.446 55.1367 21.0563 55.1367 20.6006V16.5811H53.1953V15.6035H55.1367V13.8125H56.4082ZM66.6963 23L66.6211 21.9814C66.375 22.346 66.0674 22.6309 65.6982 22.8359C65.3291 23.0365 64.903 23.1367 64.4199 23.1367C64.0326 23.1367 63.6816 23.0775 63.3672 22.959C63.0527 22.8359 62.7839 22.6468 62.5605 22.3916C62.3372 22.1364 62.1641 21.8128 62.041 21.4209C61.9225 21.0244 61.8633 20.5505 61.8633 19.999V15.6035H63.1279V20.0127C63.1279 20.4137 63.1598 20.7464 63.2236 21.0107C63.2874 21.2751 63.3831 21.4847 63.5107 21.6396C63.6383 21.7992 63.7933 21.9108 63.9756 21.9746C64.1624 22.0384 64.3766 22.0703 64.6182 22.0703C64.9007 22.0703 65.1536 22.0384 65.377 21.9746C65.6003 21.9062 65.7939 21.8128 65.958 21.6943C66.0947 21.5986 66.2132 21.4847 66.3135 21.3525C66.4183 21.2158 66.5049 21.0677 66.5732 20.9082V15.6035H67.8447V23H66.6963ZM70.4287 12.5H74.209V21.9062H76.6221V23H70.4287V21.9062H72.9443V13.6006H70.4287V12.5ZM81.9062 23.1367C81.3867 23.1367 80.9082 23.0479 80.4707 22.8701C80.0378 22.6924 79.6663 22.444 79.3564 22.125C79.0465 21.806 78.805 21.4277 78.6318 20.9902C78.4587 20.5527 78.3721 20.0765 78.3721 19.5615V19.2744C78.3721 18.6774 78.4678 18.1442 78.6592 17.6748C78.8506 17.2008 79.1058 16.7998 79.4248 16.4717C79.7393 16.1481 80.097 15.8997 80.498 15.7266C80.9036 15.5534 81.3184 15.4668 81.7422 15.4668C82.2754 15.4668 82.7402 15.5602 83.1367 15.7471C83.5378 15.9294 83.8704 16.1823 84.1348 16.5059C84.3991 16.834 84.5951 17.2191 84.7227 17.6611C84.8548 18.1032 84.9209 18.5817 84.9209 19.0967V19.6641H79.6367V19.7119C79.6686 20.0719 79.7393 20.3887 79.8486 20.6621C79.9626 20.9355 80.1175 21.1771 80.3135 21.3867C80.514 21.61 80.7555 21.7855 81.0381 21.9131C81.3206 22.0407 81.6328 22.1045 81.9746 22.1045C82.4258 22.1045 82.8268 22.0133 83.1777 21.8311C83.5286 21.6488 83.8203 21.4072 84.0527 21.1064L84.8252 21.708C84.5791 22.0817 84.21 22.4144 83.7178 22.7061C83.2301 22.9932 82.6263 23.1367 81.9062 23.1367ZM81.7422 16.5059C81.487 16.5059 81.2454 16.5537 81.0176 16.6494C80.7897 16.7406 80.5846 16.875 80.4023 17.0527C80.2201 17.235 80.0651 17.4583 79.9375 17.7227C79.8145 17.9824 79.7279 18.2832 79.6777 18.625H83.6562V18.5635C83.6562 18.3356 83.613 18.0918 83.5264 17.832C83.4398 17.5677 83.319 17.3398 83.1641 17.1484C83.0091 16.957 82.8132 16.8021 82.5762 16.6836C82.3438 16.5651 82.0658 16.5059 81.7422 16.5059ZM91.9619 21.0381C91.9619 20.8877 91.9323 20.7533 91.873 20.6348C91.8138 20.5117 91.7135 20.4001 91.5723 20.2998C91.431 20.1995 91.2441 20.1084 91.0117 20.0264C90.7793 19.9398 90.4899 19.8623 90.1436 19.7939C89.7197 19.7074 89.3324 19.6025 88.9814 19.4795C88.6351 19.3564 88.3389 19.2083 88.0928 19.0352C87.8421 18.8665 87.6484 18.6683 87.5117 18.4404C87.375 18.208 87.3066 17.9391 87.3066 17.6338C87.3066 17.333 87.3773 17.0527 87.5186 16.793C87.6598 16.5286 87.8581 16.2985 88.1133 16.1025C88.3685 15.9066 88.6715 15.7516 89.0225 15.6377C89.3779 15.5238 89.7676 15.4668 90.1914 15.4668C90.6471 15.4668 91.0573 15.526 91.4219 15.6445C91.7865 15.763 92.0964 15.9271 92.3516 16.1367C92.6068 16.3464 92.8027 16.5924 92.9395 16.875C93.0807 17.153 93.1514 17.4538 93.1514 17.7773H91.8867C91.8867 17.6178 91.8457 17.4629 91.7637 17.3125C91.6816 17.1576 91.5677 17.0208 91.4219 16.9023C91.276 16.7839 91.0983 16.6882 90.8887 16.6152C90.6836 16.5423 90.4512 16.5059 90.1914 16.5059C89.9225 16.5059 89.6855 16.5355 89.4805 16.5947C89.2799 16.654 89.1136 16.7337 88.9814 16.834C88.8447 16.9342 88.7422 17.0505 88.6738 17.1826C88.6055 17.3148 88.5713 17.4515 88.5713 17.5928C88.5713 17.7386 88.5986 17.8685 88.6533 17.9824C88.708 18.0964 88.8037 18.1989 88.9404 18.29C89.0726 18.3812 89.2503 18.4632 89.4736 18.5361C89.7015 18.609 89.9886 18.6797 90.335 18.748C90.7907 18.8438 91.1986 18.9554 91.5586 19.083C91.9186 19.2061 92.2217 19.3542 92.4678 19.5273C92.7139 19.7051 92.9007 19.9102 93.0283 20.1426C93.1605 20.375 93.2266 20.6439 93.2266 20.9492C93.2266 21.2773 93.1514 21.5758 93.001 21.8447C92.8551 22.1136 92.6501 22.3438 92.3857 22.5352C92.1214 22.7266 91.8047 22.8747 91.4355 22.9795C91.0664 23.0843 90.6631 23.1367 90.2256 23.1367C89.7243 23.1367 89.2777 23.0706 88.8857 22.9385C88.4938 22.8018 88.1634 22.6217 87.8945 22.3984C87.6211 22.1797 87.4115 21.9245 87.2656 21.6328C87.1243 21.3411 87.0537 21.0381 87.0537 20.7236H88.3184C88.3366 20.9834 88.4049 21.2021 88.5234 21.3799C88.6465 21.5576 88.7992 21.7012 88.9814 21.8105C89.1592 21.9199 89.3574 21.9974 89.5762 22.043C89.7949 22.0885 90.0114 22.1113 90.2256 22.1113C90.5628 22.1113 90.8568 22.0726 91.1074 21.9951C91.3581 21.9131 91.554 21.8014 91.6953 21.6602C91.7819 21.5736 91.848 21.4779 91.8936 21.373C91.9391 21.2682 91.9619 21.1566 91.9619 21.0381ZM103.863 23V15.6035H104.998L105.087 16.6973C105.196 16.5423 105.315 16.401 105.442 16.2734C105.575 16.1413 105.714 16.0273 105.859 15.9316C106.078 15.7858 106.315 15.6742 106.57 15.5967C106.83 15.5146 107.104 15.4714 107.391 15.4668C107.778 15.4668 108.129 15.5215 108.443 15.6309C108.762 15.7402 109.034 15.9111 109.257 16.1436C109.48 16.376 109.651 16.6722 109.77 17.0322C109.893 17.3877 109.954 17.8115 109.954 18.3037V23H108.689V18.3311C108.689 18.0029 108.653 17.7249 108.58 17.4971C108.507 17.2692 108.4 17.0846 108.259 16.9434C108.113 16.8021 107.935 16.6995 107.726 16.6357C107.521 16.5719 107.284 16.54 107.015 16.54C106.782 16.54 106.566 16.5742 106.365 16.6426C106.165 16.7064 105.98 16.7952 105.812 16.9092C105.675 17.0094 105.547 17.1257 105.429 17.2578C105.315 17.39 105.215 17.5358 105.128 17.6953V23H103.863ZM111.916 19.2334C111.916 18.7002 111.993 18.2057 112.148 17.75C112.303 17.2897 112.527 16.891 112.818 16.5537C113.105 16.2165 113.456 15.9521 113.871 15.7607C114.286 15.5648 114.753 15.4668 115.272 15.4668C115.797 15.4668 116.266 15.5648 116.681 15.7607C117.1 15.9521 117.455 16.2165 117.747 16.5537C118.034 16.891 118.255 17.2897 118.41 17.75C118.565 18.2057 118.643 18.7002 118.643 19.2334V19.3838C118.643 19.917 118.565 20.4115 118.41 20.8672C118.255 21.3229 118.034 21.7194 117.747 22.0566C117.455 22.3939 117.102 22.6582 116.688 22.8496C116.273 23.041 115.806 23.1367 115.286 23.1367C114.762 23.1367 114.29 23.041 113.871 22.8496C113.456 22.6582 113.105 22.3939 112.818 22.0566C112.527 21.7194 112.303 21.3229 112.148 20.8672C111.993 20.4115 111.916 19.917 111.916 19.3838V19.2334ZM113.181 19.3838C113.181 19.7484 113.224 20.097 113.311 20.4297C113.397 20.7578 113.529 21.0472 113.707 21.2979C113.88 21.5485 114.099 21.7467 114.363 21.8926C114.628 22.0384 114.935 22.1113 115.286 22.1113C115.632 22.1113 115.936 22.0384 116.195 21.8926C116.46 21.7467 116.681 21.5485 116.858 21.2979C117.032 21.0472 117.161 20.7578 117.248 20.4297C117.335 20.097 117.378 19.7484 117.378 19.3838V19.2334C117.378 18.8734 117.332 18.5293 117.241 18.2012C117.155 17.8685 117.025 17.5768 116.852 17.3262C116.674 17.0755 116.453 16.8773 116.188 16.7314C115.929 16.5811 115.623 16.5059 115.272 16.5059C114.922 16.5059 114.616 16.5811 114.356 16.7314C114.097 16.8773 113.88 17.0755 113.707 17.3262C113.529 17.5768 113.397 17.8685 113.311 18.2012C113.224 18.5293 113.181 18.8734 113.181 19.2334V19.3838ZM131.61 23L128.568 15.6035H129.867L131.986 21.1816L132.103 21.6396L132.226 21.1816L134.297 15.6035H135.589L132.574 23H131.61ZM140.764 23.1367C140.244 23.1367 139.766 23.0479 139.328 22.8701C138.895 22.6924 138.524 22.444 138.214 22.125C137.904 21.806 137.662 21.4277 137.489 20.9902C137.316 20.5527 137.229 20.0765 137.229 19.5615V19.2744C137.229 18.6774 137.325 18.1442 137.517 17.6748C137.708 17.2008 137.963 16.7998 138.282 16.4717C138.597 16.1481 138.954 15.8997 139.355 15.7266C139.761 15.5534 140.176 15.4668 140.6 15.4668C141.133 15.4668 141.598 15.5602 141.994 15.7471C142.395 15.9294 142.728 16.1823 142.992 16.5059C143.257 16.834 143.452 17.2191 143.58 17.6611C143.712 18.1032 143.778 18.5817 143.778 19.0967V19.6641H138.494V19.7119C138.526 20.0719 138.597 20.3887 138.706 20.6621C138.82 20.9355 138.975 21.1771 139.171 21.3867C139.371 21.61 139.613 21.7855 139.896 21.9131C140.178 22.0407 140.49 22.1045 140.832 22.1045C141.283 22.1045 141.684 22.0133 142.035 21.8311C142.386 21.6488 142.678 21.4072 142.91 21.1064L143.683 21.708C143.437 22.0817 143.067 22.4144 142.575 22.7061C142.088 22.9932 141.484 23.1367 140.764 23.1367ZM140.6 16.5059C140.344 16.5059 140.103 16.5537 139.875 16.6494C139.647 16.7406 139.442 16.875 139.26 17.0527C139.077 17.235 138.923 17.4583 138.795 17.7227C138.672 17.9824 138.585 18.2832 138.535 18.625H142.514V18.5635C142.514 18.3356 142.47 18.0918 142.384 17.832C142.297 17.5677 142.176 17.3398 142.021 17.1484C141.867 16.957 141.671 16.8021 141.434 16.6836C141.201 16.5651 140.923 16.5059 140.6 16.5059ZM143.013 13.9629H138.132V12.9854H143.013V13.9629ZM150.819 21.0381C150.819 20.8877 150.79 20.7533 150.73 20.6348C150.671 20.5117 150.571 20.4001 150.43 20.2998C150.288 20.1995 150.102 20.1084 149.869 20.0264C149.637 19.9398 149.347 19.8623 149.001 19.7939C148.577 19.7074 148.19 19.6025 147.839 19.4795C147.493 19.3564 147.196 19.2083 146.95 19.0352C146.7 18.8665 146.506 18.6683 146.369 18.4404C146.232 18.208 146.164 17.9391 146.164 17.6338C146.164 17.333 146.235 17.0527 146.376 16.793C146.517 16.5286 146.715 16.2985 146.971 16.1025C147.226 15.9066 147.529 15.7516 147.88 15.6377C148.235 15.5238 148.625 15.4668 149.049 15.4668C149.505 15.4668 149.915 15.526 150.279 15.6445C150.644 15.763 150.954 15.9271 151.209 16.1367C151.464 16.3464 151.66 16.5924 151.797 16.875C151.938 17.153 152.009 17.4538 152.009 17.7773H150.744C150.744 17.6178 150.703 17.4629 150.621 17.3125C150.539 17.1576 150.425 17.0208 150.279 16.9023C150.133 16.7839 149.956 16.6882 149.746 16.6152C149.541 16.5423 149.309 16.5059 149.049 16.5059C148.78 16.5059 148.543 16.5355 148.338 16.5947C148.137 16.654 147.971 16.7337 147.839 16.834C147.702 16.9342 147.6 17.0505 147.531 17.1826C147.463 17.3148 147.429 17.4515 147.429 17.5928C147.429 17.7386 147.456 17.8685 147.511 17.9824C147.565 18.0964 147.661 18.1989 147.798 18.29C147.93 18.3812 148.108 18.4632 148.331 18.5361C148.559 18.609 148.846 18.6797 149.192 18.748C149.648 18.8438 150.056 18.9554 150.416 19.083C150.776 19.2061 151.079 19.3542 151.325 19.5273C151.571 19.7051 151.758 19.9102 151.886 20.1426C152.018 20.375 152.084 20.6439 152.084 20.9492C152.084 21.2773 152.009 21.5758 151.858 21.8447C151.713 22.1136 151.507 22.3438 151.243 22.5352C150.979 22.7266 150.662 22.8747 150.293 22.9795C149.924 23.0843 149.521 23.1367 149.083 23.1367C148.582 23.1367 148.135 23.0706 147.743 22.9385C147.351 22.8018 147.021 22.6217 146.752 22.3984C146.479 22.1797 146.269 21.9245 146.123 21.6328C145.982 21.3411 145.911 21.0381 145.911 20.7236H147.176C147.194 20.9834 147.262 21.2021 147.381 21.3799C147.504 21.5576 147.657 21.7012 147.839 21.8105C148.017 21.9199 148.215 21.9974 148.434 22.043C148.652 22.0885 148.869 22.1113 149.083 22.1113C149.42 22.1113 149.714 22.0726 149.965 21.9951C150.215 21.9131 150.411 21.8014 150.553 21.6602C150.639 21.5736 150.705 21.4779 150.751 21.373C150.797 21.2682 150.819 21.1566 150.819 21.0381ZM157.307 13.8125V15.6035H160.123V16.5811H157.307V20.6006C157.307 20.8877 157.343 21.1247 157.416 21.3115C157.489 21.4984 157.589 21.6465 157.717 21.7559C157.844 21.8698 157.99 21.9495 158.154 21.9951C158.323 22.0407 158.501 22.0635 158.688 22.0635C158.824 22.0635 158.965 22.0566 159.111 22.043C159.257 22.0247 159.401 22.0042 159.542 21.9814C159.679 21.9587 159.806 21.9359 159.925 21.9131C160.048 21.8857 160.148 21.863 160.226 21.8447L160.403 22.7402C160.299 22.804 160.171 22.861 160.021 22.9111C159.87 22.9567 159.706 22.9954 159.528 23.0273C159.351 23.0638 159.161 23.0911 158.961 23.1094C158.765 23.1276 158.569 23.1367 158.373 23.1367C158.045 23.1367 157.737 23.0911 157.45 23C157.168 22.9043 156.922 22.7539 156.712 22.5488C156.502 22.3483 156.336 22.0885 156.213 21.7695C156.094 21.446 156.035 21.0563 156.035 20.6006V16.5811H154.094V15.6035H156.035V13.8125H157.307ZM167.595 23L167.52 21.9814C167.273 22.346 166.966 22.6309 166.597 22.8359C166.228 23.0365 165.801 23.1367 165.318 23.1367C164.931 23.1367 164.58 23.0775 164.266 22.959C163.951 22.8359 163.682 22.6468 163.459 22.3916C163.236 22.1364 163.062 21.8128 162.939 21.4209C162.821 21.0244 162.762 20.5505 162.762 19.999V15.6035H164.026V20.0127C164.026 20.4137 164.058 20.7464 164.122 21.0107C164.186 21.2751 164.282 21.4847 164.409 21.6396C164.537 21.7992 164.692 21.9108 164.874 21.9746C165.061 22.0384 165.275 22.0703 165.517 22.0703C165.799 22.0703 166.052 22.0384 166.275 21.9746C166.499 21.9062 166.692 21.8128 166.856 21.6943C166.993 21.5986 167.112 21.4847 167.212 21.3525C167.317 21.2158 167.403 21.0677 167.472 20.9082V15.6035H168.743V23H167.595ZM175.976 15.4668C176.208 15.4668 176.45 15.4827 176.7 15.5146C176.955 15.5465 177.147 15.5898 177.274 15.6445L177.104 16.8818C176.857 16.8271 176.623 16.7884 176.399 16.7656C176.181 16.7383 175.951 16.7246 175.709 16.7246C175.399 16.7246 175.119 16.7633 174.868 16.8408C174.618 16.9137 174.399 17.0231 174.212 17.1689C174.043 17.2965 173.895 17.4538 173.768 17.6406C173.645 17.8229 173.542 18.028 173.46 18.2559V23H172.188V15.6035H173.392L173.446 16.5947L173.453 16.7793C173.754 16.3737 174.114 16.0547 174.533 15.8223C174.957 15.5853 175.438 15.4668 175.976 15.4668ZM182.805 23.1367C182.285 23.1367 181.807 23.0479 181.369 22.8701C180.936 22.6924 180.565 22.444 180.255 22.125C179.945 21.806 179.703 21.4277 179.53 20.9902C179.357 20.5527 179.271 20.0765 179.271 19.5615V19.2744C179.271 18.6774 179.366 18.1442 179.558 17.6748C179.749 17.2008 180.004 16.7998 180.323 16.4717C180.638 16.1481 180.995 15.8997 181.396 15.7266C181.802 15.5534 182.217 15.4668 182.641 15.4668C183.174 15.4668 183.639 15.5602 184.035 15.7471C184.436 15.9294 184.769 16.1823 185.033 16.5059C185.298 16.834 185.493 17.2191 185.621 17.6611C185.753 18.1032 185.819 18.5817 185.819 19.0967V19.6641H180.535V19.7119C180.567 20.0719 180.638 20.3887 180.747 20.6621C180.861 20.9355 181.016 21.1771 181.212 21.3867C181.412 21.61 181.654 21.7855 181.937 21.9131C182.219 22.0407 182.531 22.1045 182.873 22.1045C183.324 22.1045 183.725 22.0133 184.076 21.8311C184.427 21.6488 184.719 21.4072 184.951 21.1064L185.724 21.708C185.478 22.0817 185.108 22.4144 184.616 22.7061C184.129 22.9932 183.525 23.1367 182.805 23.1367ZM182.641 16.5059C182.385 16.5059 182.144 16.5537 181.916 16.6494C181.688 16.7406 181.483 16.875 181.301 17.0527C181.118 17.235 180.964 17.4583 180.836 17.7227C180.713 17.9824 180.626 18.2832 180.576 18.625H184.555V18.5635C184.555 18.3356 184.511 18.0918 184.425 17.832C184.338 17.5677 184.217 17.3398 184.062 17.1484C183.908 16.957 183.712 16.8021 183.475 16.6836C183.242 16.5651 182.964 16.5059 182.641 16.5059ZM192.86 21.0381C192.86 20.8877 192.831 20.7533 192.771 20.6348C192.712 20.5117 192.612 20.4001 192.471 20.2998C192.329 20.1995 192.143 20.1084 191.91 20.0264C191.678 19.9398 191.388 19.8623 191.042 19.7939C190.618 19.7074 190.231 19.6025 189.88 19.4795C189.534 19.3564 189.237 19.2083 188.991 19.0352C188.741 18.8665 188.547 18.6683 188.41 18.4404C188.273 18.208 188.205 17.9391 188.205 17.6338C188.205 17.333 188.276 17.0527 188.417 16.793C188.558 16.5286 188.757 16.2985 189.012 16.1025C189.267 15.9066 189.57 15.7516 189.921 15.6377C190.276 15.5238 190.666 15.4668 191.09 15.4668C191.546 15.4668 191.956 15.526 192.32 15.6445C192.685 15.763 192.995 15.9271 193.25 16.1367C193.505 16.3464 193.701 16.5924 193.838 16.875C193.979 17.153 194.05 17.4538 194.05 17.7773H192.785C192.785 17.6178 192.744 17.4629 192.662 17.3125C192.58 17.1576 192.466 17.0208 192.32 16.9023C192.174 16.7839 191.997 16.6882 191.787 16.6152C191.582 16.5423 191.35 16.5059 191.09 16.5059C190.821 16.5059 190.584 16.5355 190.379 16.5947C190.178 16.654 190.012 16.7337 189.88 16.834C189.743 16.9342 189.641 17.0505 189.572 17.1826C189.504 17.3148 189.47 17.4515 189.47 17.5928C189.47 17.7386 189.497 17.8685 189.552 17.9824C189.606 18.0964 189.702 18.1989 189.839 18.29C189.971 18.3812 190.149 18.4632 190.372 18.5361C190.6 18.609 190.887 18.6797 191.233 18.748C191.689 18.8438 192.097 18.9554 192.457 19.083C192.817 19.2061 193.12 19.3542 193.366 19.5273C193.612 19.7051 193.799 19.9102 193.927 20.1426C194.059 20.375 194.125 20.6439 194.125 20.9492C194.125 21.2773 194.05 21.5758 193.899 21.8447C193.754 22.1136 193.549 22.3438 193.284 22.5352C193.02 22.7266 192.703 22.8747 192.334 22.9795C191.965 23.0843 191.562 23.1367 191.124 23.1367C190.623 23.1367 190.176 23.0706 189.784 22.9385C189.392 22.8018 189.062 22.6217 188.793 22.3984C188.52 22.1797 188.31 21.9245 188.164 21.6328C188.023 21.3411 187.952 21.0381 187.952 20.7236H189.217C189.235 20.9834 189.303 21.2021 189.422 21.3799C189.545 21.5576 189.698 21.7012 189.88 21.8105C190.058 21.9199 190.256 21.9974 190.475 22.043C190.693 22.0885 190.91 22.1113 191.124 22.1113C191.461 22.1113 191.755 22.0726 192.006 21.9951C192.257 21.9131 192.452 21.8014 192.594 21.6602C192.68 21.5736 192.746 21.4779 192.792 21.373C192.838 21.2682 192.86 21.1566 192.86 21.0381Z" fill="#FFF4EF"/>
<defs>
<filter id="filter0_d_8_1050" x="0" y="2" width="228" height="36" filterUnits="userSpaceOnUse" color-interpolation-filters="sRGB">
<feFlood flood-opacity="0" result="BackgroundImageFix"/>
<feColorMatrix in="SourceAlpha" type="matrix" values="0 0 0 0 0 0 0 0 0 0 0 0 0 0 0 0 0 0 127 0" result="hardAlpha"/>
<feOffset dx="2" dy="2"/>
<feGaussianBlur stdDeviation="2"/>
<feComposite in2="hardAlpha" operator="out"/>
<feColorMatrix type="matrix" values="0 0 0 0 0.137255 0 0 0 0 0.137255 0 0 0 0 0.129412 0 0 0 0.2 0"/>
<feBlend mode="normal" in2="BackgroundImageFix" result="effect1_dropShadow_8_1050"/>
<feBlend mode="normal" in="SourceGraphic" in2="effect1_dropShadow_8_1050" result="shape"/>
</filter>
</defs>
</svg>
