<svg width="129" height="377" viewBox="0 0 129 377" fill="none" xmlns="http://www.w3.org/2000/svg">
<g opacity="0.5">
<path d="M5.73608 369.957C10.2491 338.218 40.3931 94.4732 54.2511 5.74219" stroke="white" stroke-width="10" stroke-linejoin="bevel"/>
<path d="M6.45914 370.156C7.17314 365.132 7.82614 360.099 8.48514 355.068C9.57914 346.718 10.6541 338.366 11.7281 330.014C13.1461 318.98 14.5591 307.946 15.9711 296.912C17.6391 283.879 19.3081 270.847 20.9801 257.815C22.8141 243.519 24.6541 229.224 26.5011 214.93C28.4361 199.954 30.3801 184.979 32.3381 170.006C34.2821 155.133 36.2401 140.261 38.2181 125.392C40.1091 111.172 42.0191 96.9552 43.9601 82.7412C45.7021 69.9792 47.4681 57.2202 49.2811 44.4682C50.7961 33.8122 52.3401 23.1602 53.9611 12.5192C54.2951 10.3262 54.6331 8.13321 54.9751 5.94121C55.1221 4.99721 53.6771 4.59021 53.5291 5.54221C51.9641 15.5652 50.4871 25.6022 49.0401 35.6432C47.2681 47.9452 45.5481 60.2552 43.8531 72.5682C41.9451 86.4282 40.0711 100.294 38.2161 114.161C36.2371 128.959 34.2801 143.759 32.3371 158.561C30.3721 173.534 28.4221 188.508 26.4821 203.484C24.5951 218.054 22.7161 232.624 20.8441 247.196C19.1241 260.582 17.4091 273.968 15.6951 287.355C14.2081 298.968 12.7231 310.581 11.2331 322.194C10.0651 331.301 8.89513 340.407 7.71113 349.512C6.94713 355.39 6.18412 361.269 5.37812 367.142C5.25812 368.014 5.13813 368.885 5.01413 369.757C4.88013 370.701 6.32414 371.109 6.45914 370.156Z" stroke="white" stroke-width="10" stroke-linejoin="bevel"/>
<path d="M122.718 370.333C104.819 270.554 59.1372 25.6712 54.2512 5.74219" stroke="white" stroke-width="10" stroke-linejoin="bevel"/>
<path d="M123.441 370.134C121.465 359.118 119.47 348.105 117.466 337.094C115.083 324 112.688 310.909 110.284 297.819C107.625 283.336 104.956 268.856 102.279 254.376C99.4721 239.194 96.6572 224.013 93.8342 208.834C91.0082 193.641 88.1752 178.45 85.3322 163.261C82.6162 148.747 79.8922 134.235 77.1562 119.725C74.6782 106.579 72.1912 93.4351 69.6902 80.2931C67.5862 69.2381 65.4721 58.1841 63.3361 47.1351C61.7211 38.7811 60.0982 30.4291 58.4332 22.0851C57.4512 17.1631 56.4822 12.2361 55.3882 7.3371C55.2542 6.7371 55.1182 6.1381 54.9722 5.5421C54.7432 4.6051 53.2962 5.0021 53.5262 5.9411C54.4922 9.8881 55.2562 13.8901 56.0612 17.8711C57.5922 25.4421 59.0741 33.0231 60.5471 40.6061C62.5851 51.0931 64.5982 61.5841 66.6012 72.0781C69.0282 84.7891 71.4381 97.5031 73.8401 110.218C76.5311 124.463 79.2102 138.71 81.8802 152.959C84.7082 168.048 87.5282 183.14 90.3392 198.232C93.1782 213.476 96.0102 228.722 98.8332 243.97C101.547 258.631 104.254 273.294 106.952 287.958C109.434 301.449 111.907 314.942 114.369 328.437C116.481 340.017 118.586 351.599 120.673 363.183C121.114 365.632 121.555 368.082 121.994 370.532C122.164 371.481 123.61 371.079 123.44 370.133L123.441 370.134Z" stroke="white" stroke-width="10" stroke-linejoin="bevel"/>
<path d="M43.963 72.071C48.6 71.897 57.733 70.272 57.733 70.272C57.733 70.272 76.059 78.865 76.217 79.943C76.796 83.897 78.019 87.41 78.44 91.108C73.551 95.109 69.05 99.584 65.022 104.452L54.54 106.073L38.502 98.703L35.137 85.631C35.137 85.631 36.314 83.333 37.103 82.306C39.477 79.218 41.851 76.129 43.964 72.071H43.963Z" stroke="white" stroke-width="10" stroke-linejoin="bevel"/>
<path d="M43.963 72.8211C46.603 72.7091 49.235 72.3441 51.848 71.9671C53.085 71.7881 54.3201 71.5971 55.5541 71.3961C56.2071 71.2901 57.115 71.2971 57.723 71.0311C58.203 70.8211 57.378 71.1751 57.368 70.9261C57.368 70.9511 57.612 71.0371 57.638 71.0531C58.033 71.2981 58.508 71.4641 58.927 71.6631C60.502 72.4111 62.073 73.1661 63.641 73.9291C67.168 75.6451 70.742 77.3361 74.124 79.3281C74.545 79.5761 75.0121 79.9291 75.3991 80.1431C75.6091 80.2591 75.624 80.4561 75.492 80.1421C75.852 81.0001 75.85 82.2261 76.049 83.1471C76.463 85.0631 76.965 86.9611 77.335 88.8861C77.422 89.3401 77.638 89.9661 77.599 90.4221C77.551 90.9691 77.275 91.0971 76.866 91.4411C76.118 92.0711 75.38 92.7121 74.651 93.3631C71.736 95.9701 68.977 98.7521 66.394 101.689C66.096 102.028 65.8001 102.369 65.5071 102.712C65.3621 102.882 65.201 103.048 65.069 103.228C65.693 102.377 64.545 103.903 64.814 103.729C64.72 103.79 64.529 103.756 64.422 103.79C63.759 103.996 62.9701 104.014 62.2831 104.121L56.263 105.052C55.746 105.132 54.963 105.102 54.489 105.326C54.132 105.495 54.841 105.273 54.89 105.412C54.872 105.361 54.602 105.284 54.553 105.257C51.484 103.603 48.153 102.316 44.986 100.861L40.1751 98.6501C39.8971 98.5221 39.316 98.1041 39.005 98.1121C38.611 98.1221 39.422 98.3571 39.22 98.4881C39.237 98.4771 39.1351 98.1711 39.1321 98.1451C38.9271 96.6061 38.33 95.0291 37.943 93.5261L36.42 87.6111C36.267 87.0171 36.1691 86.3621 35.9511 85.7881C35.9401 85.7581 35.882 85.4461 35.863 85.4451C36.062 85.4541 35.523 86.1331 35.867 85.8481C36.008 85.7321 36.111 85.3871 36.198 85.2271C37.718 82.4241 39.8511 80.0421 41.6361 77.4091C42.7191 75.8111 43.711 74.1571 44.611 72.4491C45.061 71.5961 43.766 70.8371 43.316 71.6921C41.484 75.1681 39.212 78.3371 36.824 81.4471C36 82.5211 35.31 83.6751 34.686 84.8761C34.452 85.3271 34.3841 85.6181 34.4851 86.1051C35.2441 89.7611 36.3571 93.3761 37.2871 96.9921C37.4811 97.7471 37.5411 98.9311 38.2271 99.3971C39.2131 100.066 40.546 100.463 41.626 100.959C45.351 102.671 49.076 104.382 52.801 106.094C53.528 106.428 54.158 106.846 54.961 106.761C56.679 106.579 58.397 106.23 60.104 105.966C61.712 105.717 63.545 105.669 65.105 105.193C65.371 105.112 65.488 105.014 65.698 104.808C66.492 104.032 67.165 103.074 67.906 102.243C69.258 100.727 70.656 99.2541 72.1 97.8261C73.544 96.3981 75.031 95.0141 76.56 93.6771C77.286 93.0431 78.119 92.4641 78.798 91.7811C79.409 91.1651 79.11 90.3841 78.982 89.5841C78.66 87.5841 78.149 85.6211 77.7 83.6481C77.476 82.6651 77.2651 81.6781 77.0931 80.6841C77.0081 80.1921 77.0111 79.7211 76.7051 79.3191C76.0611 78.4721 74.711 77.9211 73.811 77.4221C71.967 76.4001 70.085 75.4481 68.2 74.5051C64.986 72.8981 61.7541 71.3241 58.4981 69.8051C57.6561 69.4121 56.941 69.6541 56.036 69.8051C53.337 70.2561 50.6301 70.6711 47.9121 70.9851C46.6001 71.1361 45.285 71.2651 43.965 71.3211C43.003 71.3621 42.998 72.8621 43.965 72.8211H43.963Z" stroke="white" stroke-width="10" stroke-linejoin="bevel"/>
<path d="M48.9771 84.5074L62.237 82.6694C64.034 85.8324 65.078 89.4184 65.261 93.0514C60.536 93.6624 55.851 94.5754 51.242 95.7824C50.24 91.8664 49.2381 87.9504 48.9771 84.5064V84.5074Z" stroke="white" stroke-width="10" stroke-linejoin="bevel"/>
<path d="M49.176 85.2313L62.436 83.3933L61.5891 83.0483C63.3111 86.1243 64.311 89.5313 64.51 93.0513L65.26 92.3013C60.466 92.9283 55.721 93.8403 51.042 95.0593L51.965 95.5833C51.033 91.9423 50.0311 88.2663 49.7271 84.5073C49.6501 83.5513 48.1491 83.5433 48.2271 84.5073C48.5421 88.4043 49.5531 92.2073 50.5191 95.9823C50.6201 96.3783 51.0541 96.6073 51.4421 96.5063C55.9881 95.3223 60.6031 94.4103 65.2611 93.8013C65.6451 93.7513 66.0361 93.4983 66.0111 93.0513C65.7971 89.2643 64.739 85.6013 62.885 82.2913C62.706 81.9713 62.369 81.9003 62.038 81.9463C57.618 82.5593 53.1981 83.1713 48.7781 83.7843C47.8261 83.9163 48.231 85.3613 49.177 85.2303L49.176 85.2313Z" stroke="white" stroke-width="10" stroke-linejoin="bevel"/>
<path d="M49.849 35.2415C49.849 35.2415 57.284 33.3355 58.257 33.5975C59.097 33.8235 66.248 39.2265 66.248 39.2265L68.553 45.8595L62.454 55.5425L53.357 56.3355C50.814 55.3605 45.153 51.5285 45.153 51.5285L43.656 43.3385L49.851 35.2415H49.849Z" stroke="white" stroke-width="10" stroke-linejoin="bevel"/>
<path d="M50.0481 35.9642C52.5671 35.3202 55.1521 34.5892 57.7431 34.3322C58.1471 34.2922 57.9951 34.2742 58.4331 34.5342C59.0161 34.8802 59.5721 35.2792 60.1271 35.6672C61.4891 36.6202 62.8281 37.6062 64.1621 38.5972C64.6181 38.9362 65.0611 39.3142 65.5371 39.6242C65.5831 39.6542 65.7911 39.8602 65.8391 39.8522C65.6821 39.8802 65.5221 39.1372 65.5941 39.6302C65.7831 40.9202 66.5261 42.3142 66.9541 43.5452L67.5921 45.3822C67.6401 45.5202 67.6741 45.7862 67.7711 45.8972C68.0261 46.1892 67.7821 45.5572 67.8691 45.5342C67.7271 45.5712 67.4101 46.2622 67.3351 46.3822L66.3221 47.9912C64.8161 50.3822 63.3101 52.7732 61.8041 55.1642L62.4521 54.7932C59.9881 55.0082 57.5241 55.2222 55.0611 55.4372C54.6121 55.4762 54.0981 55.5902 53.6461 55.5602C53.1421 55.5272 52.7351 55.2492 52.2431 54.9932C50.5411 54.1072 48.9081 53.0812 47.2961 52.0422C46.8031 51.7242 46.3211 51.3392 45.8031 51.0642C45.7791 51.0512 45.5551 50.8752 45.5391 50.8872C45.9641 50.5602 45.8361 51.7482 45.8171 51.0152C45.7831 49.7452 45.3321 48.3612 45.1041 47.1132C44.8881 45.9322 44.8471 44.4822 44.4181 43.3592C44.1811 42.7402 44.8571 43.9472 44.3071 43.7102C44.3151 43.7142 44.4631 43.5052 44.4651 43.5032C44.7971 43.2472 45.0741 42.7072 45.3271 42.3762C47.0501 40.1242 48.7741 37.8712 50.4971 35.6192C51.0831 34.8532 49.7811 34.1052 49.2021 34.8622C47.5581 37.0112 45.9141 39.1592 44.2701 41.3082C43.7851 41.9422 42.9031 42.6962 42.9311 43.5372C42.9661 44.6022 43.3351 45.7482 43.5261 46.7942C43.8001 48.2962 44.0301 49.8142 44.3511 51.3062C44.5381 52.1772 45.1391 52.4242 45.8671 52.9002C47.5421 53.9962 49.2391 55.0712 50.9991 56.0272C52.1421 56.6482 52.9931 57.1162 54.2711 57.0042L58.9911 56.5932C60.0921 56.4972 61.3391 56.5442 62.4191 56.2942C63.2081 56.1122 63.5221 55.2502 63.9321 54.5992L66.6121 50.3442L68.8521 46.7882C69.3081 46.0642 69.2961 45.7202 69.0141 44.9092L67.4081 40.2872C67.1451 39.5292 67.0281 38.8832 66.3791 38.3922C64.9661 37.3242 63.5401 36.2722 62.1031 35.2382C61.0501 34.4802 59.7461 33.2192 58.4561 32.8732C57.1101 32.5132 55.1711 33.2262 53.8691 33.5122C52.4571 33.8222 51.0501 34.1582 49.6501 34.5172C48.7151 34.7562 49.1121 36.2032 50.0491 35.9632L50.0481 35.9642Z" stroke="white" stroke-width="10" stroke-linejoin="bevel"/>
<path d="M49.6231 17.3596L55.0651 9.82861C57.1541 11.4866 59.2431 13.1446 61.3331 14.8026C59.2291 16.9826 57.3581 19.3886 55.7641 21.9646C52.9121 20.8956 50.2951 19.2026 48.1521 17.0386" stroke="white" stroke-width="10" stroke-linejoin="bevel"/>
<path d="M50.271 17.7384C52.085 15.2284 53.899 12.7174 55.713 10.2074L54.535 10.3594C56.624 12.0174 58.713 13.6754 60.803 15.3334V14.2724C58.659 16.5064 56.753 18.9584 55.117 21.5864L55.964 21.2414C53.227 20.1984 50.753 18.5764 48.683 16.5084C47.999 15.8254 46.938 16.8854 47.622 17.5694C49.884 19.8284 52.58 21.5514 55.565 22.6884C55.878 22.8074 56.248 22.6074 56.412 22.3434C57.983 19.8194 59.805 17.4774 61.864 15.3324C62.121 15.0654 62.187 14.5284 61.864 14.2714C59.775 12.6134 57.686 10.9554 55.596 9.2974C55.192 8.9774 54.724 9.0254 54.418 9.4494C52.604 11.9594 50.79 14.4704 48.976 16.9804C48.41 17.7644 49.71 18.5134 50.271 17.7374V17.7384Z" stroke="white" stroke-width="10" stroke-linejoin="bevel"/>
<path d="M54.4273 8.04248C55.4853 31.4195 55.2773 54.8535 53.8063 78.2075C53.7213 79.5645 53.6313 80.9225 53.5413 82.2795C53.2693 86.3875 49.2483 366.226 48.9773 370.333" stroke="white" stroke-width="10" stroke-linejoin="bevel"/>
<path d="M53.6773 8.04236C54.3463 22.9644 54.5123 37.9074 54.1563 52.8404C53.9823 60.1404 53.6852 67.4384 53.2662 74.7284C53.1122 77.3964 52.8683 80.0654 52.7743 82.7354C52.6253 86.9664 52.6043 91.2054 52.5323 95.4384C52.3813 104.322 52.2413 113.206 52.1013 122.09C51.9083 134.395 51.7183 146.701 51.5303 159.006C51.3113 173.319 51.0943 187.633 50.8773 201.946C50.6503 216.974 50.4233 232.003 50.1953 247.031C49.9763 261.49 49.7573 275.949 49.5363 290.408C49.3463 302.86 49.1553 315.312 48.9593 327.763C48.8143 337.02 48.6682 346.276 48.5122 355.533C48.4342 360.184 48.3752 364.835 48.2532 369.485C48.2462 369.767 48.2433 370.051 48.2253 370.333C48.1633 371.297 49.6633 371.293 49.7253 370.333C49.9393 367.002 49.8722 363.632 49.9302 360.296C50.0742 352.024 50.2053 343.752 50.3363 335.48C50.5233 323.69 50.7053 311.899 50.8863 300.109C51.1023 285.996 51.3173 271.882 51.5313 257.769C51.7583 242.766 51.9853 227.763 52.2123 212.76C52.4333 198.153 52.6543 183.547 52.8773 168.94C53.0743 156.02 53.2722 143.101 53.4732 130.181C53.6262 120.369 53.7803 110.556 53.9423 100.744C54.0333 95.2564 54.1163 89.7694 54.2353 84.2824C54.3083 80.9264 54.6033 77.5824 54.7933 74.2304C55.6413 59.3184 55.9733 44.3764 55.7903 29.4404C55.7033 22.3044 55.4953 15.1704 55.1753 8.04136C55.1323 7.08036 53.6323 7.07436 53.6753 8.04136L53.6773 8.04236Z" stroke="white" stroke-width="10" stroke-linejoin="bevel"/>
<path d="M60.2292 34.107C57.3682 31.995 54.3592 30.084 51.2312 28.393C53.9502 26.136 56.5302 23.592 59.2492 21.335" stroke="white" stroke-width="10" stroke-linejoin="bevel"/>
<path d="M60.6082 33.46C57.7422 31.351 54.7382 29.443 51.6102 27.746L51.7622 28.924C54.4982 26.644 57.0442 24.146 59.7802 21.866C60.5222 21.247 59.4562 20.191 58.7192 20.805C55.9832 23.085 53.4372 25.583 50.7012 27.863C50.3332 28.17 50.4562 28.826 50.8532 29.041C53.9802 30.738 56.9852 32.647 59.8512 34.755C60.6292 35.328 61.3782 34.027 60.6082 33.46Z" stroke="white" stroke-width="10" stroke-linejoin="bevel"/>
<path d="M51.715 23.2163L60.641 30.0113C56.841 30.9443 53.231 32.6463 50.094 34.9843" stroke="white" stroke-width="10" stroke-linejoin="bevel"/>
<path d="M51.3361 23.8642L60.2621 30.6592L60.4411 29.2882C56.5751 30.2512 52.9181 31.9672 49.7151 34.3372C48.9471 34.9052 49.6952 36.2072 50.4722 35.6322C53.5812 33.3322 57.0871 31.6702 60.8401 30.7342C61.5291 30.5622 61.4981 29.7272 61.0191 29.3632L52.0932 22.5682C51.3252 21.9832 50.5771 23.2862 51.3361 23.8642Z" stroke="white" stroke-width="10" stroke-linejoin="bevel"/>
<path d="M50.0784 36.2671C54.7884 46.3101 60.0874 56.0761 65.9414 65.4981" stroke="white" stroke-width="10" stroke-linejoin="bevel"/>
<path d="M49.4302 36.6462C54.1492 46.6882 59.4452 56.4472 65.2932 65.8772C65.8012 66.6962 67.0992 65.9432 66.5882 65.1202C60.7412 55.6902 55.4452 45.9312 50.7252 35.8892C50.3152 35.0162 49.0212 35.7772 49.4302 36.6462Z" stroke="white" stroke-width="10" stroke-linejoin="bevel"/>
<path d="M45.792 68.5814C46.219 62.9674 48.608 57.7164 50.961 52.6014C53.893 46.2284 56.824 39.8564 59.756 33.4834" stroke="white" stroke-width="10" stroke-linejoin="bevel"/>
<path d="M46.5421 68.5813C47.0711 62.3993 49.8721 56.7553 52.4271 51.2013C55.0861 45.4213 57.7451 39.6413 60.4041 33.8623C60.8051 32.9913 59.5121 32.2283 59.1091 33.1053C56.3141 39.1813 53.5191 45.2573 50.7231 51.3343C48.1811 56.8603 45.5681 62.4413 45.0421 68.5823C44.9601 69.5443 46.4601 69.5373 46.5421 68.5813Z" stroke="white" stroke-width="10" stroke-linejoin="bevel"/>
<path d="M46.9812 55.1982C49.8592 60.4472 52.3742 65.8952 54.4992 71.4912" stroke="white" stroke-width="10" stroke-linejoin="bevel"/>
<path d="M46.3332 55.5773C49.1762 60.7753 51.6652 66.1553 53.7752 71.6913C54.1152 72.5843 55.5662 72.1973 55.2212 71.2923C53.0652 65.6353 50.5322 60.1313 47.6272 54.8193C47.1642 53.9723 45.8682 54.7283 46.3322 55.5763L46.3332 55.5773Z" stroke="white" stroke-width="10" stroke-linejoin="bevel"/>
<path d="M42.5762 91.235C44.2922 92.144 45.8292 93.392 47.0712 94.885C51.1912 87.277 55.3122 79.67 59.4322 72.062" stroke="white" stroke-width="10" stroke-linejoin="bevel"/>
<path d="M42.1972 91.8821C43.8702 92.7961 45.3023 93.9661 46.5403 95.4151C46.8503 95.7781 47.5013 95.6641 47.7183 95.2631C51.8383 87.6551 55.9593 80.0481 60.0793 72.4401C60.5393 71.5911 59.2442 70.8331 58.7842 71.6831C54.6642 79.2911 50.5433 86.8981 46.4233 94.5061L47.6013 94.3541C46.2873 92.8151 44.7303 91.5571 42.9543 90.5871C42.1073 90.1241 41.3492 91.4191 42.1972 91.8821Z" stroke="white" stroke-width="10" stroke-linejoin="bevel"/>
<path d="M46.3232 72.1738C51.6102 82.1378 56.3603 92.3868 60.5463 102.861C65.1723 105.321 69.7983 107.781 74.4253 110.241" stroke="white" stroke-width="10" stroke-linejoin="bevel"/>
<path d="M45.6752 72.5531C49.5792 79.9241 53.2002 87.4431 56.5112 95.0991C57.3682 97.0811 58.2042 99.0721 59.0192 101.072C59.2982 101.756 59.5032 102.835 60.0152 103.392C60.5902 104.019 61.8091 104.383 62.5521 104.778C66.3831 106.815 70.2142 108.852 74.0452 110.89C74.8972 111.343 75.6561 110.049 74.8021 109.595C71.0431 107.596 67.2841 105.597 63.5261 103.599C62.7861 103.205 61.6312 102.857 61.0912 102.221C60.7892 101.865 60.6441 101.113 60.4651 100.675C60.2551 100.16 60.0441 99.6461 59.8311 99.1321C59.1081 97.3841 58.3691 95.6421 57.6161 93.9071C54.3561 86.4021 50.7991 79.0291 46.9691 71.7981C46.5171 70.9451 45.2222 71.7021 45.6742 72.5551L45.6752 72.5531Z" stroke="white" stroke-width="10" stroke-linejoin="bevel"/>
<path d="M69.9582 86.7988C64.5302 89.7788 59.4881 93.4618 54.9991 97.7278C54.3281 98.3648 53.6062 99.0478 52.6912 99.1868C51.5562 99.3588 50.4951 98.6468 49.5721 97.9648C47.0441 96.0988 44.5452 94.1948 42.0762 92.2518" stroke="white" stroke-width="10" stroke-linejoin="bevel"/>
<path d="M69.5802 86.151C64.9412 88.716 60.5792 91.763 56.5922 95.259C55.6072 96.122 54.7002 97.162 53.6362 97.924C52.2112 98.944 50.9742 98.068 49.7612 97.177C47.3452 95.4 44.9642 93.574 42.6062 91.721C41.8552 91.131 40.7862 92.186 41.5452 92.782C44.0652 94.761 46.5992 96.732 49.1932 98.612C50.1102 99.277 51.1372 99.954 52.3152 99.962C53.5542 99.97 54.5212 99.194 55.3832 98.395C59.9492 94.158 64.8782 90.464 70.3362 87.447C71.1812 86.98 70.4252 85.684 69.5792 86.152L69.5802 86.151Z" stroke="white" stroke-width="10" stroke-linejoin="bevel"/>
<path d="M54.01 78.4746C60.311 82.4436 64.062 89.3256 67.542 95.9096C69.951 100.466 72.364 105.031 74.334 109.793" stroke="white" stroke-width="10" stroke-linejoin="bevel"/>
<path d="M53.6311 79.1214C58.6181 82.3264 61.9511 87.3114 64.7941 92.3974C67.9861 98.1064 71.0911 103.951 73.6101 109.99C73.9761 110.868 75.428 110.483 75.056 109.591C72.436 103.307 69.234 97.2154 65.891 91.2874C62.964 86.0954 59.478 81.0974 54.387 77.8254C53.573 77.3014 52.8201 78.5994 53.6301 79.1204L53.6311 79.1214Z" stroke="white" stroke-width="10" stroke-linejoin="bevel"/>
<path d="M53.905 98.8111L39.428 115.343C43.096 108.033 45.506 101.039 47.987 93.2461" stroke="white" stroke-width="10" stroke-linejoin="bevel"/>
<path d="M53.3751 98.2811C48.5491 103.792 43.7241 109.302 38.8981 114.813L40.0761 115.722C43.6461 108.571 46.2871 101.048 48.7111 93.4461C49.0051 92.5241 47.5571 92.1301 47.2651 93.0471C44.8811 100.526 42.2941 107.929 38.7811 114.965C38.4221 115.684 39.3661 116.551 39.9591 115.874C44.7851 110.363 49.6101 104.853 54.4361 99.3421C55.0701 98.6181 54.0131 97.5531 53.3751 98.2811Z" stroke="white" stroke-width="10" stroke-linejoin="bevel"/>
<path d="M76.103 80.3892C74.854 89.9222 73.605 99.4562 72.355 108.989" stroke="white" stroke-width="10" stroke-linejoin="bevel"/>
<path d="M75.353 80.3894C74.104 89.9224 72.855 99.4564 71.605 108.989C71.48 109.943 72.981 109.934 73.105 108.989C74.354 99.4564 75.603 89.9224 76.853 80.3894C76.978 79.4354 75.477 79.4444 75.353 80.3894Z" stroke="white" stroke-width="10" stroke-linejoin="bevel"/>
<path d="M33.072 162.717C33.98 158.788 38.497 154.89 41.175 151.951C44.588 148.206 48.238 144.677 52.096 141.393C62.265 145.347 73.033 148.775 83.043 153.116" stroke="white" stroke-width="10" stroke-linejoin="bevel"/>
<path d="M33.7951 162.915C34.8751 158.703 38.7601 155.668 41.5911 152.603C45.0731 148.835 48.7241 145.255 52.6261 141.921L51.8961 142.114C62.1201 146.079 72.5901 149.41 82.6631 153.762C83.5401 154.141 84.3051 152.849 83.4201 152.467C73.2261 148.064 62.6401 144.681 52.2941 140.668C52.0371 140.568 51.7561 140.697 51.5641 140.861C47.4771 144.353 43.7501 148.147 40.0591 152.045C37.1501 155.118 33.4411 158.25 32.3471 162.516C32.1071 163.452 33.5531 163.851 33.7931 162.915H33.7951Z" stroke="white" stroke-width="10" stroke-linejoin="bevel"/>
<path d="M39.5081 115.976C43.5971 126.39 47.6861 136.805 51.7751 147.219" stroke="white" stroke-width="10" stroke-linejoin="bevel"/>
<path d="M38.7852 116.176C42.8742 126.59 46.9632 137.005 51.0522 147.419C51.4012 148.307 52.8522 147.921 52.4982 147.02C48.4092 136.606 44.3202 126.191 40.2312 115.777C39.8822 114.889 38.4312 115.275 38.7852 116.176Z" stroke="white" stroke-width="10" stroke-linejoin="bevel"/>
<path d="M36.3303 136.338C41.9563 130.144 48.0013 124.332 54.4113 118.954" stroke="white" stroke-width="10" stroke-linejoin="bevel"/>
<path d="M36.8612 136.869C42.4942 130.678 48.5352 124.87 54.9422 119.485C55.6822 118.863 54.6162 117.807 53.8812 118.424C47.4742 123.81 41.4332 129.618 35.8002 135.808C35.1522 136.521 36.2092 137.584 36.8612 136.869Z" stroke="white" stroke-width="10" stroke-linejoin="bevel"/>
<path d="M51.8342 106.534C47.3422 125.29 41.2582 143.665 33.6682 161.395" stroke="white" stroke-width="10" stroke-linejoin="bevel"/>
<path d="M51.1102 106.334C46.6192 125.028 40.5732 143.336 33.0192 161.016C32.6442 161.894 33.9362 162.659 34.3142 161.773C41.9202 143.97 48.0332 125.558 52.5562 106.733C52.7812 105.795 51.3352 105.395 51.1102 106.334Z" stroke="white" stroke-width="10" stroke-linejoin="bevel"/>
<path d="M57.3191 107.152C63.7931 123.13 71.9951 138.408 81.7361 152.633" stroke="white" stroke-width="10" stroke-linejoin="bevel"/>
<path d="M56.5962 107.351C63.1152 123.395 71.3182 138.713 81.0892 153.011C81.6302 153.803 82.9312 153.054 82.3842 152.254C72.6902 138.068 64.5102 122.871 58.0432 106.952C57.6842 106.069 56.2332 106.455 56.5972 107.351H56.5962Z" stroke="white" stroke-width="10" stroke-linejoin="bevel"/>
<path d="M67.4691 147.985C71.3151 136.116 73.6341 123.935 74.2031 111.472C69.9311 115.503 63.6971 118.534 61.0241 123.764L52.1011 141.216C59.0601 130.718 66.7971 121.095 74.9931 111.531" stroke="white" stroke-width="10" stroke-linejoin="bevel"/>
<path d="M52.7481 141.594C52.2131 142.399 51.0121 141.699 51.4531 140.837L56.5841 130.802C58.0951 127.846 59.4031 124.578 61.3001 121.849C64.4861 117.265 69.6581 114.677 73.6731 110.941C74.1251 110.519 74.9851 110.793 74.9531 111.471C74.3601 123.959 72.0261 136.29 68.1921 148.184H68.1901C67.8951 149.1 66.4471 148.706 66.7441 147.785C70.5381 136.016 72.8661 123.829 73.4521 111.471L74.7321 112.001C70.7551 115.702 65.4301 118.271 62.3931 122.903C60.5411 125.728 59.1921 128.988 57.6551 131.995L52.7481 141.594ZM52.7481 141.594C59.6381 131.224 67.4301 121.511 75.5231 112.061C76.1481 111.331 75.0921 110.266 74.4621 111C66.2871 120.546 58.4131 130.361 51.4531 140.836L52.7481 141.594Z" stroke="white" stroke-width="10" stroke-linejoin="bevel"/>
<path d="M53.0481 120.331C58.9371 124.66 65.3871 128.225 72.1861 130.907C72.4031 132.603 72.6211 134.3 72.8381 135.996C68.0911 138.737 63.8631 142.373 60.4401 146.655" stroke="white" stroke-width="10" stroke-linejoin="bevel"/>
<path d="M52.6691 120.978C58.6361 125.34 65.1201 128.9 71.9871 131.63L71.4361 130.907C71.6531 132.603 71.8711 134.3 72.0881 135.996L72.4591 135.348C67.6541 138.154 63.4051 141.794 59.9101 146.124C59.3091 146.868 60.3641 147.936 60.9711 147.185C64.3911 142.949 68.5151 139.39 73.2171 136.644C73.4231 136.524 73.6211 136.249 73.5881 135.996C73.3711 134.3 73.1531 132.603 72.9361 130.907C72.8891 130.54 72.7281 130.32 72.3851 130.184C65.6441 127.504 59.2811 123.964 53.4261 119.683C52.6461 119.113 51.8971 120.414 52.6691 120.978Z" stroke="white" stroke-width="10" stroke-linejoin="bevel"/>
<path d="M38.6841 149.388L43.9721 142.869C44.3061 142.458 44.6601 142.031 45.1481 141.827C47.2071 140.966 49.1431 144.574 51.2281 143.776C50.1611 147.08 48.0321 150.032 45.2351 152.088C42.8461 151.648 40.5701 150.608 38.6841 149.389V149.388Z" stroke="white" stroke-width="10" stroke-linejoin="bevel"/>
<path d="M39.2142 149.918L42.7142 145.604C43.3102 144.869 43.9021 144.13 44.5031 143.399C44.8611 142.964 45.2602 142.41 45.8852 142.444C46.8022 142.493 47.6702 143.359 48.4022 143.833C49.3042 144.417 50.3522 144.865 51.4282 144.498L50.5052 143.575C49.4762 146.695 47.4952 149.475 44.8562 151.439L45.4341 151.363C43.1451 150.924 41.0202 149.992 39.0622 148.739C38.2462 148.217 37.4931 149.515 38.3051 150.034C39.6811 150.914 41.1502 151.648 42.6942 152.185C43.4542 152.449 44.3262 152.774 45.1352 152.823C45.8042 152.863 46.5382 152.027 47.0072 151.606C49.2972 149.552 50.9902 146.889 51.9512 143.974C52.1252 143.447 51.5602 142.87 51.0282 143.051C50.0632 143.38 49.1192 142.512 48.3762 142.003C47.4782 141.388 46.4531 140.766 45.3181 140.993C44.6281 141.13 44.0781 141.584 43.6331 142.106C43.0341 142.807 42.4671 143.538 41.8871 144.255L38.1541 148.857C37.5511 149.6 38.6052 150.668 39.2142 149.918Z" stroke="white" stroke-width="10" stroke-linejoin="bevel"/>
<path d="M30.0183 186.776C36.6053 179.334 44.1733 172.763 52.4663 167.286" stroke="white" stroke-width="10" stroke-linejoin="bevel"/>
<path d="M30.5482 187.307C37.1142 179.915 44.6032 173.398 52.8442 167.934C53.6452 167.403 52.8952 166.103 52.0872 166.639C43.7422 172.172 36.1372 178.76 29.4882 186.246C28.8492 186.966 29.9063 188.03 30.5493 187.307H30.5482Z" stroke="white" stroke-width="10" stroke-linejoin="bevel"/>
<path d="M63.1012 228.645C71.7292 220.715 80.6722 213.562 91.4382 208.934C78.2482 204.963 65.0822 201.188 51.8922 197.217C42.4692 202.561 33.7952 209.223 26.2012 216.95C39.0182 221.377 51.3472 224.133 64.5302 227.307" stroke="white" stroke-width="10" stroke-linejoin="bevel"/>
<path d="M63.6313 229.176C72.1083 221.397 81.1882 214.191 91.8162 209.582C92.4422 209.31 92.1992 208.38 91.6372 208.211C81.6462 205.205 71.6272 202.296 61.6222 199.336C59.1592 198.607 56.6962 197.875 54.2362 197.138C53.4272 196.895 52.3442 196.319 51.5132 196.569C50.4982 196.875 49.3932 197.795 48.4842 198.348C44.6132 200.701 40.8852 203.282 37.3092 206.062C33.2042 209.253 29.3223 212.718 25.6713 216.419C25.2563 216.839 25.4753 217.491 26.0023 217.673C38.5373 221.986 51.4592 224.933 64.3312 228.03C65.2692 228.256 65.6693 226.81 64.7303 226.584C51.8573 223.487 38.9362 220.54 26.4012 216.227L26.7322 217.481C33.0152 211.112 39.9952 205.461 47.5612 200.685C48.4282 200.138 49.3012 199.603 50.1822 199.079C50.6172 198.82 51.0532 198.526 51.5082 198.302C52.2052 197.959 52.6102 198.217 53.3612 198.443C55.7422 199.157 58.1252 199.866 60.5092 200.572C65.3502 202.005 70.1942 203.426 75.0382 204.85C80.4422 206.44 85.8443 208.035 91.2393 209.658L91.0602 208.287C80.3212 212.944 71.1363 220.256 62.5713 228.116C61.8583 228.77 62.9213 229.829 63.6323 229.177L63.6313 229.176Z" stroke="white" stroke-width="10" stroke-linejoin="bevel"/>
<path d="M71.0101 369.996C69.4051 329.23 60.0701 143.656 60.5451 102.861" stroke="white" stroke-width="10" stroke-linejoin="bevel"/>
<path d="M71.7602 369.996C71.5522 364.716 71.3192 359.438 71.0842 354.159C70.7522 346.692 70.4112 339.225 70.0682 331.758C69.6472 322.573 69.2232 313.389 68.8012 304.204C68.3262 293.873 67.8542 283.541 67.3862 273.209C66.8932 262.323 66.4062 251.436 65.9272 240.549C65.4432 229.546 64.9692 218.543 64.5092 207.539C64.0692 197.01 63.6422 186.481 63.2372 175.951C62.8732 166.478 62.5262 157.004 62.2132 147.529C61.9502 139.563 61.7092 131.596 61.5252 123.628C61.3902 117.757 61.2752 111.884 61.2782 106.011C61.2782 104.961 61.2842 103.911 61.2962 102.861C61.3072 101.895 59.8072 101.895 59.7962 102.861C59.7362 108.142 59.8202 113.425 59.9212 118.705C60.0652 126.175 60.2752 133.644 60.5072 141.112C60.7932 150.299 61.1182 159.485 61.4612 168.67C61.8472 179.003 62.2582 189.336 62.6832 199.667C63.1312 210.555 63.5952 221.442 64.0682 232.328C64.5472 243.331 65.0362 254.334 65.5312 265.337C66.0052 275.866 66.4852 286.395 66.9682 296.923C67.4022 306.396 67.8392 315.868 68.2742 325.341C68.6402 333.306 69.0062 341.271 69.3642 349.236C69.6282 355.106 69.8902 360.975 70.1332 366.846C70.1762 367.895 70.2192 368.945 70.2602 369.994C70.2982 370.956 71.7982 370.961 71.7602 369.994V369.996Z" stroke="white" stroke-width="10" stroke-linejoin="bevel"/>
<path d="M52.519 166.954C64.047 171.473 75.576 175.991 87.104 180.51C77.621 184.17 70.2581 191.715 63.2141 199.044C57.7261 198.628 52.73 195.904 47.679 193.72C41.64 191.109 35.293 189.212 28.811 188.079" stroke="white" stroke-width="10" stroke-linejoin="bevel"/>
<path d="M52.3201 167.676C63.8481 172.195 75.3771 176.713 86.9051 181.232V179.786C79.3321 182.76 73.0911 188.031 67.3811 193.706C66.6351 194.448 65.8961 195.197 65.1611 195.951C64.8191 196.302 64.4781 196.653 64.1371 197.006C63.8301 197.324 63.3661 198.065 62.9741 198.212C62.2141 198.499 60.6981 197.944 59.9181 197.756C58.7681 197.479 57.6381 197.121 56.5271 196.717C52.3251 195.19 48.3611 193.078 44.1761 191.501C39.2611 189.649 34.1821 188.275 29.0121 187.357C28.0681 187.189 27.6631 188.635 28.6131 188.803C33.2431 189.626 37.8001 190.81 42.2331 192.382C46.5531 193.914 50.6231 196 54.8771 197.687C56.9381 198.504 59.0601 199.199 61.2531 199.556C61.9041 199.662 62.9891 200.003 63.5941 199.693C64.3941 199.283 65.1561 198.11 65.7821 197.465C68.7101 194.451 71.6991 191.484 74.9361 188.799C78.6711 185.702 82.7731 183.014 87.3041 181.234C88.0121 180.956 88.0141 180.066 87.3041 179.788C75.7761 175.269 64.2471 170.751 52.7191 166.232C51.8201 165.88 51.4301 167.33 52.3201 167.678V167.676Z" stroke="white" stroke-width="10" stroke-linejoin="bevel"/>
<path d="M33.6511 161.871C39.9111 174.022 45.6671 186.434 50.8991 199.062" stroke="white" stroke-width="10" stroke-linejoin="bevel"/>
<path d="M33.003 162.249C39.228 174.347 44.961 186.694 50.175 199.261C50.54 200.14 51.992 199.754 51.621 198.862C46.357 186.175 40.582 173.706 34.298 161.492C33.856 160.633 32.561 161.391 33.003 162.249Z" stroke="white" stroke-width="10" stroke-linejoin="bevel"/>
<path d="M26.2102 216.632C27.9882 205.5 35.0642 195.984 38.7032 185.314C41.6742 176.604 47.4662 152.174 51.2292 143.775" stroke="white" stroke-width="10" stroke-linejoin="bevel"/>
<path d="M26.9333 216.831C28.9083 204.928 36.4952 194.978 40.0512 183.585C42.7882 174.816 44.9602 165.874 47.5402 157.058C48.8082 152.724 50.0392 148.29 51.8762 144.154C52.2642 143.279 50.9722 142.515 50.5812 143.397C49.0112 146.932 47.8863 150.668 46.7743 154.366C45.3183 159.207 43.9802 164.082 42.6412 168.956C41.4582 173.262 40.3002 177.578 39.0132 181.854C37.4722 186.976 35.3193 191.799 32.9723 196.598C29.8613 202.957 26.6572 209.381 25.4872 216.432C25.3302 217.376 26.7763 217.782 26.9333 216.831Z" stroke="white" stroke-width="10" stroke-linejoin="bevel"/>
<path d="M34.3252 160.977C40.8742 162.702 47.2432 165.11 53.2952 168.15" stroke="white" stroke-width="10" stroke-linejoin="bevel"/>
<path d="M34.1261 161.701C40.6171 163.423 46.9101 165.795 52.9171 168.798C53.7781 169.229 54.5391 167.935 53.6741 167.503C47.5541 164.442 41.1391 162.009 34.5251 160.255C33.5911 160.007 33.1931 161.454 34.1261 161.701Z" stroke="white" stroke-width="10" stroke-linejoin="bevel"/>
<path d="M41.251 177.175C52.46 181.49 63.795 185.478 75.236 189.133" stroke="white" stroke-width="10" stroke-linejoin="bevel"/>
<path d="M41.0521 177.898C52.2631 182.209 63.5961 186.197 75.0371 189.856C75.9591 190.151 76.3531 188.703 75.4361 188.41C63.9951 184.75 52.6631 180.763 41.4511 176.452C40.5491 176.105 40.1591 177.555 41.0521 177.898Z" stroke="white" stroke-width="10" stroke-linejoin="bevel"/>
<path d="M73.439 189.264C80.524 194.38 86.816 201.557 92.515 208.183L71.271 176.217" stroke="white" stroke-width="10" stroke-linejoin="bevel"/>
<path d="M73.0601 189.911C80.2771 195.167 86.1921 201.981 91.9841 208.712C92.5361 209.354 93.6331 208.512 93.1621 207.803C86.0811 197.148 78.9991 186.492 71.9181 175.837C71.3861 175.037 70.0861 175.787 70.6231 176.594C77.7041 187.249 84.7861 197.905 91.8671 208.56L93.0451 207.651C87.1611 200.812 81.1481 193.954 73.8171 188.615C73.0361 188.046 72.2861 189.348 73.0601 189.911Z" stroke="white" stroke-width="10" stroke-linejoin="bevel"/>
<path d="M61.219 171.644C68.069 165.672 74.919 159.699 81.769 153.727" stroke="white" stroke-width="10" stroke-linejoin="bevel"/>
<path d="M61.749 172.173C68.599 166.201 75.449 160.228 82.299 154.256C83.028 153.62 81.963 152.563 81.238 153.195C74.388 159.167 67.538 165.14 60.688 171.112C59.959 171.748 61.024 172.805 61.749 172.173Z" stroke="white" stroke-width="10" stroke-linejoin="bevel"/>
<path d="M36.322 242.716L51.562 232.969C68.252 236.886 84.319 240.058 100.535 245.621C88.512 251.581 76.388 258.168 64.365 264.129C50.614 257.637 35.632 254.243 20.49 252.841C25.394 249.705 30.274 246.523 35.178 243.392C38.85 241.047 45.24 244.291 49.096 245.597C59.452 249.105 69.508 253.747 80.344 255.641" stroke="white" stroke-width="10" stroke-linejoin="bevel"/>
<path d="M36.7011 243.364C40.4771 240.949 44.2531 238.535 48.0281 236.12L50.9111 234.276C51.3431 234 51.5691 233.821 52.0711 233.859C52.6841 233.905 53.3531 234.158 53.9561 234.297C56.1411 234.803 58.3281 235.301 60.5161 235.799C69.0041 237.729 77.4991 239.645 85.8991 241.937C90.7551 243.262 95.5731 244.718 100.337 246.345L100.158 244.974C88.0261 250.995 76.1201 257.46 63.9881 263.482H64.7451C50.8301 256.95 35.7471 253.525 20.4911 252.092L20.8701 253.49C24.7521 251.006 28.6191 248.497 32.4961 246.004C34.1351 244.95 35.7831 243.506 37.7951 243.337C39.4701 243.196 41.1671 243.621 42.7561 244.105C46.2951 245.184 49.7831 246.594 53.2591 247.861C57.3941 249.368 61.4951 250.966 65.6521 252.41C70.3901 254.056 75.2031 255.484 80.1461 256.366C81.0901 256.535 81.4951 255.089 80.5451 254.92C71.4711 253.3 62.9241 249.813 54.3101 246.653C50.6761 245.32 47.0261 243.865 43.3311 242.713C41.7571 242.223 40.1021 241.819 38.4431 241.815C36.7321 241.811 35.4031 242.36 33.9831 243.268C29.3521 246.232 24.7431 249.231 20.1121 252.195C19.4551 252.616 19.7621 253.524 20.4911 253.593C31.5671 254.634 42.5661 256.729 53.0971 260.36C55.7861 261.287 58.4441 262.312 61.0521 263.447C61.6151 263.692 62.1751 263.942 62.7341 264.196C63.1411 264.382 63.7271 264.792 64.1671 264.853C64.6381 264.919 64.9821 264.66 65.3971 264.454C66.1231 264.093 66.8471 263.73 67.5711 263.367C72.8271 260.725 78.0461 258.01 83.2661 255.298C89.1301 252.251 94.9951 249.209 100.914 246.271C101.532 245.964 101.301 245.094 100.735 244.9C92.1561 241.968 83.3981 239.623 74.5841 237.512C70.2681 236.479 65.9411 235.496 61.6141 234.512C59.3501 233.997 57.0871 233.483 54.8251 232.96C53.8721 232.74 52.6411 232.225 51.6621 232.234C50.8391 232.242 50.0081 233.075 49.3301 233.508C44.8681 236.362 40.4051 239.216 35.9431 242.069C35.1321 242.588 35.8841 243.886 36.7001 243.364H36.7011Z" stroke="white" stroke-width="10" stroke-linejoin="bevel"/>
<path d="M25.7852 218.684C38.1722 236.004 47.5932 255.407 50.5442 276.495C69.9092 281.913 89.5792 286.237 109.431 289.439C99.1002 292.926 88.7701 296.413 78.4391 299.901C74.2251 301.324 69.8832 302.765 65.4422 302.521C61.7102 302.316 58.1611 300.933 54.6161 299.748C42.2141 295.604 30.0362 293.533 16.9722 294.086C28.2172 288.688 39.1122 281.531 50.7642 277.078C59.2942 261.42 68.9462 246.373 79.6212 232.091C84.8852 225.048 90.5652 217.832 92.2342 209.199" stroke="white" stroke-width="10" stroke-linejoin="bevel"/>
<path d="M25.1382 219.062C34.6672 232.418 42.5492 247.091 46.9532 262.958C48.2052 267.47 49.1632 272.057 49.8222 276.693C49.8582 276.943 50.1192 277.153 50.3462 277.217C69.7162 282.627 89.3802 286.949 109.233 290.161V288.715C103.129 290.776 97.0242 292.836 90.9202 294.897C84.8952 296.931 78.8812 299.292 72.7232 300.889C69.6392 301.689 66.4952 302.062 63.3332 301.527C60.3322 301.019 57.4702 299.905 54.5932 298.949C48.8252 297.033 42.9212 295.512 36.9182 294.538C30.3242 293.469 23.6482 293.068 16.9732 293.334L17.3522 294.732C24.4212 291.324 31.1902 287.346 38.1442 283.718C41.6512 281.888 45.2082 280.14 48.8672 278.632C49.5482 278.351 50.5572 278.159 51.1442 277.723C51.7452 277.277 52.0722 276.248 52.4292 275.603C53.4122 273.823 54.4092 272.051 55.4212 270.287C63.3592 256.449 72.2292 243.219 81.7822 230.449C86.5582 224.064 91.3562 217.365 92.9592 209.396C93.1492 208.453 91.7032 208.05 91.5132 208.997C90.0932 216.061 86.0822 222.117 81.8732 227.828C77.2942 234.042 72.6982 240.226 68.3832 246.63C63.9692 253.181 59.7632 259.871 55.7732 266.687C54.7852 268.374 53.8112 270.069 52.8502 271.772C52.3892 272.589 51.9302 273.408 51.4752 274.229C51.0612 274.976 50.6742 276.163 49.9362 276.596C49.1942 277.031 48.2482 277.273 47.4552 277.609C46.5502 277.992 45.6512 278.388 44.7572 278.796C43.0292 279.584 41.3212 280.414 39.6262 281.271C31.8772 285.19 24.4202 289.664 16.5952 293.436C15.9212 293.761 16.2532 294.862 16.9742 294.834C29.2572 294.344 41.3932 296.262 53.0752 300.028C56.0432 300.985 58.9652 302.145 62.0222 302.796C64.8922 303.408 67.7692 303.405 70.6532 302.885C73.6262 302.349 76.4902 301.348 79.3452 300.384C82.3972 299.354 85.4492 298.323 88.5022 297.293C95.5462 294.915 102.589 292.538 109.633 290.16C110.266 289.946 110.422 288.841 109.633 288.714C89.7802 285.502 70.1162 281.179 50.7462 275.77L51.2702 276.294C48.9462 259.943 42.7212 244.413 34.2892 230.279C31.8422 226.178 29.2082 222.192 26.4352 218.304C25.8792 217.525 24.5782 218.273 25.1402 219.061L25.1382 219.062Z" stroke="white" stroke-width="10" stroke-linejoin="bevel"/>
<path d="M67.0133 148.273C65.5533 155.92 64.0933 163.567 62.6343 171.214" stroke="white" stroke-width="10" stroke-linejoin="bevel"/>
<path d="M66.2902 148.073C64.8302 155.72 63.3702 163.367 61.9112 171.014C61.7312 171.957 63.1762 172.361 63.3572 171.413L67.7362 148.472C67.9162 147.529 66.4712 147.125 66.2902 148.073Z" stroke="white" stroke-width="10" stroke-linejoin="bevel"/>
<path d="M81.7499 154.656C79.7709 162.037 78.3869 169.577 77.6169 177.18" stroke="white" stroke-width="10" stroke-linejoin="bevel"/>
<path d="M81.026 154.457C79.039 161.911 77.655 169.507 76.866 177.181C76.767 178.14 78.268 178.133 78.366 177.181C79.141 169.641 80.52 162.18 82.472 154.856C82.721 153.922 81.274 153.524 81.026 154.457Z" stroke="white" stroke-width="10" stroke-linejoin="bevel"/>
<path d="M29.0481 202.73L37.5391 204.789" stroke="white" stroke-width="10" stroke-linejoin="bevel"/>
<path d="M28.8491 203.453C31.6791 204.139 34.5101 204.826 37.3401 205.512C38.2781 205.739 38.6781 204.293 37.7391 204.066C34.9091 203.38 32.0781 202.693 29.2481 202.007C28.3101 201.78 27.9101 203.226 28.8491 203.453Z" stroke="white" stroke-width="10" stroke-linejoin="bevel"/>
<path d="M52.0129 209.994C56.5259 210.758 61.0379 211.521 65.5509 212.285" stroke="white" stroke-width="10" stroke-linejoin="bevel"/>
<path d="M51.813 210.717C56.326 211.481 60.838 212.244 65.351 213.008C66.295 213.168 66.701 211.723 65.75 211.562C61.237 210.798 56.725 210.035 52.212 209.271C51.268 209.111 50.862 210.556 51.813 210.717Z" stroke="white" stroke-width="10" stroke-linejoin="bevel"/>
<path d="M50.824 196.66C64.866 214.132 75.433 234.387 81.73 255.9" stroke="white" stroke-width="10" stroke-linejoin="bevel"/>
<path d="M50.294 197.191C61.156 210.742 69.954 225.955 76.255 242.141C78.039 246.724 79.619 251.383 81.007 256.1C81.279 257.024 82.727 256.631 82.453 255.701C77.497 238.847 69.984 222.76 60.202 208.165C57.428 204.027 54.47 200.017 51.354 196.13C50.75 195.377 49.695 196.444 50.293 197.191H50.294Z" stroke="white" stroke-width="10" stroke-linejoin="bevel"/>
<path d="M50.3162 277.52C57.3962 285.25 63.6032 293.779 68.7822 302.893" stroke="white" stroke-width="10" stroke-linejoin="bevel"/>
<path d="M49.7861 278.05C56.8191 285.754 62.9671 294.211 68.1351 303.272C68.6131 304.11 69.9101 303.356 69.4301 302.515C64.2011 293.347 57.9632 284.785 50.8472 276.99C50.1952 276.276 49.1361 277.339 49.7861 278.051V278.05Z" stroke="white" stroke-width="10" stroke-linejoin="bevel"/>
<path d="M69.9211 64.5198C68.3201 65.7688 67.1721 67.5848 66.7311 69.5668L71.0541 71.8378L74.3861 66.3238C68.8431 63.2118 63.2991 60.0998 57.7561 56.9878L57.4691 58.4218C59.2031 57.6278 60.9761 60.0628 60.3871 61.8768C59.7981 63.6908 57.9641 64.7498 56.2771 65.6398C58.9181 63.5908 61.5591 61.5418 64.2011 59.4928" stroke="white" stroke-width="10" stroke-linejoin="bevel"/>
<path d="M69.3911 63.99C67.6921 65.36 66.5171 67.246 66.0081 69.368C65.9331 69.68 66.0541 70.058 66.3531 70.215C67.7941 70.972 69.2351 71.729 70.6761 72.486C71.0391 72.676 71.4851 72.577 71.7021 72.217L75.0341 66.703C75.2411 66.361 75.1152 65.873 74.7652 65.677C69.2222 62.565 63.6782 59.453 58.1352 56.341C57.7392 56.119 57.1312 56.302 57.0332 56.789L56.7462 58.223C56.6452 58.727 57.0912 59.368 57.6692 59.146C59.2302 58.546 60.0832 60.796 59.5502 61.976C58.8842 63.45 57.2552 64.274 55.8992 64.993L56.8082 66.171C59.4492 64.122 62.0901 62.073 64.7321 60.024C65.4941 59.433 64.4252 58.378 63.6712 58.963C61.0302 61.012 58.3892 63.061 55.7472 65.11C55.0502 65.65 55.9372 66.669 56.6562 66.288C58.6132 65.25 61.1852 63.725 61.2522 61.204C61.3052 59.196 59.4232 56.871 57.2702 57.699L58.1931 58.622L58.4802 57.188L57.3781 57.636C62.9211 60.748 68.4651 63.86 74.0081 66.972L73.7392 65.946L70.4072 71.46L71.4332 71.191C69.9922 70.434 68.5512 69.677 67.1102 68.92L67.4552 69.767C67.9102 67.871 68.9361 66.274 70.4521 65.051C71.2041 64.445 70.1361 63.39 69.3911 63.99Z" stroke="white" stroke-width="10" stroke-linejoin="bevel"/>
<path d="M77.455 179.777L77.447 184.286C77.824 182.669 78.202 181.052 78.579 179.435C79.042 180.587 79.505 181.74 79.967 182.892C81.061 181.992 82.155 181.091 83.249 180.191" stroke="white" stroke-width="10" stroke-linejoin="bevel"/>
<path d="M76.705 179.777L76.697 184.286C76.695 185.117 77.975 185.324 78.17 184.485C78.547 182.868 78.925 181.251 79.302 179.634H77.8561C78.3191 180.786 78.7821 181.939 79.2441 183.091C79.4641 183.638 80.034 183.803 80.498 183.422C81.592 182.522 82.686 181.621 83.78 180.721C84.093 180.463 84.047 179.927 83.78 179.66C83.47 179.35 83.033 179.402 82.719 179.66C81.625 180.56 80.531 181.461 79.437 182.361L80.691 182.692C80.228 181.54 79.765 180.387 79.303 179.235C79.178 178.923 78.937 178.684 78.58 178.684C78.26 178.684 77.931 178.916 77.857 179.235C77.48 180.852 77.102 182.469 76.725 184.086L78.198 184.285L78.206 179.776C78.208 178.811 76.708 178.809 76.706 179.776L76.705 179.777Z" stroke="white" stroke-width="10" stroke-linejoin="bevel"/>
</g>
<path d="M6.45914 370.156C7.17314 365.132 7.82614 360.099 8.48514 355.068C9.57914 346.718 10.6541 338.366 11.7281 330.014C13.1461 318.98 14.5591 307.946 15.9711 296.912C17.6391 283.879 19.3081 270.847 20.9801 257.815C22.8141 243.519 24.6541 229.224 26.5011 214.93C28.4361 199.954 30.3801 184.979 32.3381 170.006C34.2821 155.133 36.2401 140.261 38.2181 125.392C40.1091 111.172 42.0191 96.9552 43.9601 82.7412C45.7021 69.9792 47.4681 57.2202 49.2811 44.4682C50.7961 33.8122 52.3401 23.1602 53.9611 12.5192C54.2951 10.3262 54.6331 8.13321 54.9751 5.94121C55.1221 4.99721 53.6771 4.59021 53.5291 5.54221C51.9641 15.5652 50.4871 25.6022 49.0401 35.6432C47.2681 47.9452 45.5481 60.2552 43.8531 72.5682C41.9451 86.4282 40.0711 100.294 38.2161 114.161C36.2371 128.959 34.2801 143.759 32.3371 158.561C30.3721 173.534 28.4221 188.508 26.4821 203.484C24.5951 218.054 22.7161 232.624 20.8441 247.196C19.1241 260.582 17.4091 273.968 15.6951 287.355C14.2081 298.968 12.7231 310.581 11.2331 322.194C10.0651 331.301 8.89513 340.407 7.71113 349.512C6.94713 355.39 6.18412 361.269 5.37812 367.142C5.25812 368.014 5.13813 368.885 5.01413 369.757C4.88013 370.701 6.32414 371.109 6.45914 370.156Z" fill="#D94B34"/>
<path d="M123.441 370.134C121.465 359.118 119.47 348.105 117.466 337.094C115.083 324 112.688 310.909 110.284 297.819C107.625 283.336 104.956 268.856 102.279 254.376C99.4721 239.194 96.6572 224.013 93.8342 208.834C91.0082 193.641 88.1752 178.45 85.3322 163.261C82.6162 148.747 79.8922 134.235 77.1562 119.725C74.6782 106.579 72.1912 93.4351 69.6902 80.2931C67.5862 69.2381 65.4721 58.1841 63.3361 47.1351C61.7211 38.7811 60.0982 30.4291 58.4332 22.0851C57.4512 17.1631 56.4822 12.2361 55.3882 7.3371C55.2542 6.7371 55.1182 6.1381 54.9722 5.5421C54.7432 4.6051 53.2962 5.0021 53.5262 5.9411C54.4922 9.8881 55.2562 13.8901 56.0612 17.8711C57.5922 25.4421 59.0741 33.0231 60.5471 40.6061C62.5851 51.0931 64.5982 61.5841 66.6012 72.0781C69.0282 84.7891 71.4381 97.5031 73.8401 110.218C76.5311 124.463 79.2102 138.71 81.8802 152.959C84.7082 168.048 87.5282 183.14 90.3392 198.232C93.1782 213.476 96.0102 228.722 98.8332 243.97C101.547 258.631 104.254 273.294 106.952 287.958C109.434 301.449 111.907 314.942 114.369 328.437C116.481 340.017 118.586 351.599 120.673 363.183C121.114 365.632 121.555 368.082 121.994 370.532C122.164 371.481 123.61 371.079 123.44 370.133L123.441 370.134Z" fill="#D94B34"/>
<path d="M43.963 72.8211C46.603 72.7091 49.235 72.3441 51.848 71.9671C53.085 71.7881 54.3201 71.5971 55.5541 71.3961C56.2071 71.2901 57.115 71.2971 57.723 71.0311C58.203 70.8211 57.378 71.1751 57.368 70.9261C57.368 70.9511 57.612 71.0371 57.638 71.0531C58.033 71.2981 58.508 71.4641 58.927 71.6631C60.502 72.4111 62.073 73.1661 63.641 73.9291C67.168 75.6451 70.742 77.3361 74.124 79.3281C74.545 79.5761 75.0121 79.9291 75.3991 80.1431C75.6091 80.2591 75.624 80.4561 75.492 80.1421C75.852 81.0001 75.85 82.2261 76.049 83.1471C76.463 85.0631 76.965 86.9611 77.335 88.8861C77.422 89.3401 77.638 89.9661 77.599 90.4221C77.551 90.9691 77.275 91.0971 76.866 91.4411C76.118 92.0711 75.38 92.7121 74.651 93.3631C71.736 95.9701 68.977 98.7521 66.394 101.689C66.096 102.028 65.8001 102.369 65.5071 102.712C65.3621 102.882 65.201 103.048 65.069 103.228C65.693 102.377 64.545 103.903 64.814 103.729C64.72 103.79 64.529 103.756 64.422 103.79C63.759 103.996 62.9701 104.014 62.2831 104.121L56.263 105.052C55.746 105.132 54.963 105.102 54.489 105.326C54.132 105.495 54.841 105.273 54.89 105.412C54.872 105.361 54.602 105.284 54.553 105.257C51.484 103.603 48.153 102.316 44.986 100.861L40.1751 98.6501C39.8971 98.5221 39.316 98.1041 39.005 98.1121C38.611 98.1221 39.422 98.3571 39.22 98.4881C39.237 98.4771 39.1351 98.1711 39.1321 98.1451C38.9271 96.6061 38.33 95.0291 37.943 93.5261L36.42 87.6111C36.267 87.0171 36.1691 86.3621 35.9511 85.7881C35.9401 85.7581 35.882 85.4461 35.863 85.4451C36.062 85.4541 35.523 86.1331 35.867 85.8481C36.008 85.7321 36.111 85.3871 36.198 85.2271C37.718 82.4241 39.8511 80.0421 41.6361 77.4091C42.7191 75.8111 43.711 74.1571 44.611 72.4491C45.061 71.5961 43.766 70.8371 43.316 71.6921C41.484 75.1681 39.212 78.3371 36.824 81.4471C36 82.5211 35.31 83.6751 34.686 84.8761C34.452 85.3271 34.3841 85.6181 34.4851 86.1051C35.2441 89.7611 36.3571 93.3761 37.2871 96.9921C37.4811 97.7471 37.5411 98.9311 38.2271 99.3971C39.2131 100.066 40.546 100.463 41.626 100.959C45.351 102.671 49.076 104.382 52.801 106.094C53.528 106.428 54.158 106.846 54.961 106.761C56.679 106.579 58.397 106.23 60.104 105.966C61.712 105.717 63.545 105.669 65.105 105.193C65.371 105.112 65.488 105.014 65.698 104.808C66.492 104.032 67.165 103.074 67.906 102.243C69.258 100.727 70.656 99.2541 72.1 97.8261C73.544 96.3981 75.031 95.0141 76.56 93.6771C77.286 93.0431 78.119 92.4641 78.798 91.7811C79.409 91.1651 79.11 90.3841 78.982 89.5841C78.66 87.5841 78.149 85.6211 77.7 83.6481C77.476 82.6651 77.2651 81.6781 77.0931 80.6841C77.0081 80.1921 77.0111 79.7211 76.7051 79.3191C76.0611 78.4721 74.711 77.9211 73.811 77.4221C71.967 76.4001 70.085 75.4481 68.2 74.5051C64.986 72.8981 61.7541 71.3241 58.4981 69.8051C57.6561 69.4121 56.941 69.6541 56.036 69.8051C53.337 70.2561 50.6301 70.6711 47.9121 70.9851C46.6001 71.1361 45.285 71.2651 43.965 71.3211C43.003 71.3621 42.998 72.8621 43.965 72.8211H43.963Z" fill="#D94B34"/>
<path d="M49.176 85.2313L62.436 83.3933L61.5891 83.0483C63.3111 86.1243 64.311 89.5313 64.51 93.0513L65.26 92.3013C60.466 92.9283 55.721 93.8403 51.042 95.0593L51.965 95.5833C51.033 91.9423 50.0311 88.2663 49.7271 84.5073C49.6501 83.5513 48.1491 83.5433 48.2271 84.5073C48.5421 88.4043 49.5531 92.2073 50.5191 95.9823C50.6201 96.3783 51.0541 96.6073 51.4421 96.5063C55.9881 95.3223 60.6031 94.4103 65.2611 93.8013C65.6451 93.7513 66.0361 93.4983 66.0111 93.0513C65.7971 89.2643 64.739 85.6013 62.885 82.2913C62.706 81.9713 62.369 81.9003 62.038 81.9463C57.618 82.5593 53.1981 83.1713 48.7781 83.7843C47.8261 83.9163 48.231 85.3613 49.177 85.2303L49.176 85.2313Z" fill="#D94B34"/>
<path d="M50.0481 35.9642C52.5671 35.3202 55.1521 34.5892 57.7431 34.3322C58.1471 34.2922 57.9951 34.2742 58.4331 34.5342C59.0161 34.8802 59.5721 35.2792 60.1271 35.6672C61.4891 36.6202 62.8281 37.6062 64.1621 38.5972C64.6181 38.9362 65.0611 39.3142 65.5371 39.6242C65.5831 39.6542 65.7911 39.8602 65.8391 39.8522C65.6821 39.8802 65.5221 39.1372 65.5941 39.6302C65.7831 40.9202 66.5261 42.3142 66.9541 43.5452L67.5921 45.3822C67.6401 45.5202 67.6741 45.7862 67.7711 45.8972C68.0261 46.1892 67.7821 45.5572 67.8691 45.5342C67.7271 45.5712 67.4101 46.2622 67.3351 46.3822L66.3221 47.9912C64.8161 50.3822 63.3101 52.7732 61.8041 55.1642L62.4521 54.7932C59.9881 55.0082 57.5241 55.2222 55.0611 55.4372C54.6121 55.4762 54.0981 55.5902 53.6461 55.5602C53.1421 55.5272 52.7351 55.2492 52.2431 54.9932C50.5411 54.1072 48.9081 53.0812 47.2961 52.0422C46.8031 51.7242 46.3211 51.3392 45.8031 51.0642C45.7791 51.0512 45.5551 50.8752 45.5391 50.8872C45.9641 50.5602 45.8361 51.7482 45.8171 51.0152C45.7831 49.7452 45.3321 48.3612 45.1041 47.1132C44.8881 45.9322 44.8471 44.4822 44.4181 43.3592C44.1811 42.7402 44.8571 43.9472 44.3071 43.7102C44.3151 43.7142 44.4631 43.5052 44.4651 43.5032C44.7971 43.2472 45.0741 42.7072 45.3271 42.3762C47.0501 40.1242 48.7741 37.8712 50.4971 35.6192C51.0831 34.8532 49.7811 34.1052 49.2021 34.8622C47.5581 37.0112 45.9141 39.1592 44.2701 41.3082C43.7851 41.9422 42.9031 42.6962 42.9311 43.5372C42.9661 44.6022 43.3351 45.7482 43.5261 46.7942C43.8001 48.2962 44.0301 49.8142 44.3511 51.3062C44.5381 52.1772 45.1391 52.4242 45.8671 52.9002C47.5421 53.9962 49.2391 55.0712 50.9991 56.0272C52.1421 56.6482 52.9931 57.1162 54.2711 57.0042L58.9911 56.5932C60.0921 56.4972 61.3391 56.5442 62.4191 56.2942C63.2081 56.1122 63.5221 55.2502 63.9321 54.5992L66.6121 50.3442L68.8521 46.7882C69.3081 46.0642 69.2961 45.7202 69.0141 44.9092L67.4081 40.2872C67.1451 39.5292 67.0281 38.8832 66.3791 38.3922C64.9661 37.3242 63.5401 36.2722 62.1031 35.2382C61.0501 34.4802 59.7461 33.2192 58.4561 32.8732C57.1101 32.5132 55.1711 33.2262 53.8691 33.5122C52.4571 33.8222 51.0501 34.1582 49.6501 34.5172C48.7151 34.7562 49.1121 36.2032 50.0491 35.9632L50.0481 35.9642Z" fill="#D94B34"/>
<path d="M50.271 17.7384C52.085 15.2284 53.899 12.7174 55.713 10.2074L54.535 10.3594C56.624 12.0174 58.713 13.6754 60.803 15.3334V14.2724C58.659 16.5064 56.753 18.9584 55.117 21.5864L55.964 21.2414C53.227 20.1984 50.753 18.5764 48.683 16.5084C47.999 15.8254 46.938 16.8854 47.622 17.5694C49.884 19.8284 52.58 21.5514 55.565 22.6884C55.878 22.8074 56.248 22.6074 56.412 22.3434C57.983 19.8194 59.805 17.4774 61.864 15.3324C62.121 15.0654 62.187 14.5284 61.864 14.2714C59.775 12.6134 57.686 10.9554 55.596 9.2974C55.192 8.9774 54.724 9.0254 54.418 9.4494C52.604 11.9594 50.79 14.4704 48.976 16.9804C48.41 17.7644 49.71 18.5134 50.271 17.7374V17.7384Z" fill="#D94B34"/>
<path d="M53.6773 8.04236C54.3463 22.9644 54.5123 37.9074 54.1563 52.8404C53.9823 60.1404 53.6852 67.4384 53.2662 74.7284C53.1122 77.3964 52.8683 80.0654 52.7743 82.7354C52.6253 86.9664 52.6043 91.2054 52.5323 95.4384C52.3813 104.322 52.2413 113.206 52.1013 122.09C51.9083 134.395 51.7183 146.701 51.5303 159.006C51.3113 173.319 51.0943 187.633 50.8773 201.946C50.6503 216.974 50.4233 232.003 50.1953 247.031C49.9763 261.49 49.7573 275.949 49.5363 290.408C49.3463 302.86 49.1553 315.312 48.9593 327.763C48.8143 337.02 48.6682 346.276 48.5122 355.533C48.4342 360.184 48.3752 364.835 48.2532 369.485C48.2462 369.767 48.2433 370.051 48.2253 370.333C48.1633 371.297 49.6633 371.293 49.7253 370.333C49.9393 367.002 49.8722 363.632 49.9302 360.296C50.0742 352.024 50.2053 343.752 50.3363 335.48C50.5233 323.69 50.7053 311.899 50.8863 300.109C51.1023 285.996 51.3173 271.882 51.5313 257.769C51.7583 242.766 51.9853 227.763 52.2123 212.76C52.4333 198.153 52.6543 183.547 52.8773 168.94C53.0743 156.02 53.2722 143.101 53.4732 130.181C53.6262 120.369 53.7803 110.556 53.9423 100.744C54.0333 95.2564 54.1163 89.7694 54.2353 84.2824C54.3083 80.9264 54.6033 77.5824 54.7933 74.2304C55.6413 59.3184 55.9733 44.3764 55.7903 29.4404C55.7033 22.3044 55.4953 15.1704 55.1753 8.04136C55.1323 7.08036 53.6323 7.07436 53.6753 8.04136L53.6773 8.04236Z" fill="#D94B34"/>
<path d="M60.6082 33.46C57.7422 31.351 54.7382 29.443 51.6102 27.746L51.7622 28.924C54.4982 26.644 57.0442 24.146 59.7802 21.866C60.5222 21.247 59.4562 20.191 58.7192 20.805C55.9832 23.085 53.4372 25.583 50.7012 27.863C50.3332 28.17 50.4562 28.826 50.8532 29.041C53.9802 30.738 56.9852 32.647 59.8512 34.755C60.6292 35.328 61.3782 34.027 60.6082 33.46Z" fill="#D94B34"/>
<path d="M51.3361 23.8642L60.2621 30.6592L60.4411 29.2882C56.5751 30.2512 52.9181 31.9672 49.7151 34.3372C48.9471 34.9052 49.6952 36.2072 50.4722 35.6322C53.5812 33.3322 57.0871 31.6702 60.8401 30.7342C61.5291 30.5622 61.4981 29.7272 61.0191 29.3632L52.0932 22.5682C51.3252 21.9832 50.5771 23.2862 51.3361 23.8642Z" fill="#D94B34"/>
<path d="M49.4302 36.6462C54.1492 46.6882 59.4452 56.4472 65.2932 65.8772C65.8012 66.6962 67.0992 65.9432 66.5882 65.1202C60.7412 55.6902 55.4452 45.9312 50.7252 35.8892C50.3152 35.0162 49.0212 35.7772 49.4302 36.6462Z" fill="#D94B34"/>
<path d="M46.5421 68.5813C47.0711 62.3993 49.8721 56.7553 52.4271 51.2013C55.0861 45.4213 57.7451 39.6413 60.4041 33.8623C60.8051 32.9913 59.5121 32.2283 59.1091 33.1053C56.3141 39.1813 53.5191 45.2573 50.7231 51.3343C48.1811 56.8603 45.5681 62.4413 45.0421 68.5823C44.9601 69.5443 46.4601 69.5373 46.5421 68.5813Z" fill="#D94B34"/>
<path d="M46.3332 55.5773C49.1762 60.7753 51.6652 66.1553 53.7752 71.6913C54.1152 72.5843 55.5662 72.1973 55.2212 71.2923C53.0652 65.6353 50.5322 60.1313 47.6272 54.8193C47.1642 53.9723 45.8682 54.7283 46.3322 55.5763L46.3332 55.5773Z" fill="#D94B34"/>
<path d="M42.1972 91.8821C43.8702 92.7961 45.3023 93.9661 46.5403 95.4151C46.8503 95.7781 47.5013 95.6641 47.7183 95.2631C51.8383 87.6551 55.9593 80.0481 60.0793 72.4401C60.5393 71.5911 59.2442 70.8331 58.7842 71.6831C54.6642 79.2911 50.5433 86.8981 46.4233 94.5061L47.6013 94.3541C46.2873 92.8151 44.7303 91.5571 42.9543 90.5871C42.1073 90.1241 41.3492 91.4191 42.1972 91.8821Z" fill="#D94B34"/>
<path d="M45.6752 72.5531C49.5792 79.9241 53.2002 87.4431 56.5112 95.0991C57.3682 97.0811 58.2042 99.0721 59.0192 101.072C59.2982 101.756 59.5032 102.835 60.0152 103.392C60.5902 104.019 61.8091 104.383 62.5521 104.778C66.3831 106.815 70.2142 108.852 74.0452 110.89C74.8972 111.343 75.6561 110.049 74.8021 109.595C71.0431 107.596 67.2841 105.597 63.5261 103.599C62.7861 103.205 61.6312 102.857 61.0912 102.221C60.7892 101.865 60.6441 101.113 60.4651 100.675C60.2551 100.16 60.0441 99.6461 59.8311 99.1321C59.1081 97.3841 58.3691 95.6421 57.6161 93.9071C54.3561 86.4021 50.7991 79.0291 46.9691 71.7981C46.5171 70.9451 45.2222 71.7021 45.6742 72.5551L45.6752 72.5531Z" fill="#D94B34"/>
<path d="M69.5802 86.151C64.9412 88.716 60.5792 91.763 56.5922 95.259C55.6072 96.122 54.7002 97.162 53.6362 97.924C52.2112 98.944 50.9742 98.068 49.7612 97.177C47.3452 95.4 44.9642 93.574 42.6062 91.721C41.8552 91.131 40.7862 92.186 41.5452 92.782C44.0652 94.761 46.5992 96.732 49.1932 98.612C50.1102 99.277 51.1372 99.954 52.3152 99.962C53.5542 99.97 54.5212 99.194 55.3832 98.395C59.9492 94.158 64.8782 90.464 70.3362 87.447C71.1812 86.98 70.4252 85.684 69.5792 86.152L69.5802 86.151Z" fill="#D94B34"/>
<path d="M53.6311 79.1214C58.6181 82.3264 61.9511 87.3114 64.7941 92.3974C67.9861 98.1064 71.0911 103.951 73.6101 109.99C73.9761 110.868 75.428 110.483 75.056 109.591C72.4361 103.307 69.234 97.2154 65.891 91.2874C62.964 86.0954 59.478 81.0974 54.387 77.8254C53.573 77.3014 52.8201 78.5994 53.6301 79.1204L53.6311 79.1214Z" fill="#D94B34"/>
<path d="M53.3751 98.2811C48.5491 103.792 43.7241 109.302 38.8981 114.813L40.0761 115.722C43.6461 108.571 46.2871 101.048 48.7111 93.4461C49.0051 92.5241 47.5571 92.1301 47.2651 93.0471C44.8811 100.526 42.2941 107.929 38.7811 114.965C38.4221 115.684 39.3661 116.551 39.9591 115.874C44.7851 110.363 49.6101 104.853 54.4361 99.3421C55.0701 98.6181 54.0131 97.5531 53.3751 98.2811Z" fill="#D94B34"/>
<path d="M75.353 80.3894C74.104 89.9224 72.855 99.4564 71.605 108.989C71.48 109.943 72.981 109.934 73.105 108.989C74.354 99.4564 75.603 89.9224 76.853 80.3894C76.978 79.4354 75.477 79.4444 75.353 80.3894Z" fill="#D94B34"/>
<path d="M33.7951 162.915C34.8751 158.703 38.7601 155.668 41.5911 152.603C45.0731 148.835 48.7241 145.255 52.6261 141.921L51.8961 142.114C62.1201 146.079 72.5901 149.41 82.6631 153.762C83.5401 154.141 84.3051 152.849 83.4201 152.467C73.2261 148.064 62.6401 144.681 52.2941 140.668C52.0371 140.568 51.7561 140.697 51.5641 140.861C47.4771 144.353 43.7501 148.147 40.0591 152.045C37.1501 155.118 33.4411 158.25 32.3471 162.516C32.1071 163.452 33.5531 163.851 33.7931 162.915H33.7951Z" fill="#D94B34"/>
<path d="M38.7852 116.176C42.8742 126.59 46.9632 137.005 51.0522 147.419C51.4012 148.307 52.8522 147.921 52.4982 147.02C48.4092 136.606 44.3202 126.191 40.2312 115.777C39.8822 114.889 38.4312 115.275 38.7852 116.176Z" fill="#D94B34"/>
<path d="M36.8612 136.869C42.4942 130.678 48.5352 124.87 54.9422 119.485C55.6822 118.863 54.6162 117.807 53.8812 118.424C47.4742 123.81 41.4332 129.618 35.8002 135.808C35.1522 136.521 36.2092 137.584 36.8612 136.869Z" fill="#D94B34"/>
<path d="M51.1102 106.334C46.6192 125.028 40.5732 143.336 33.0192 161.016C32.6442 161.894 33.9362 162.659 34.3142 161.773C41.9202 143.97 48.0332 125.558 52.5562 106.733C52.7812 105.795 51.3352 105.395 51.1102 106.334Z" fill="#D94B34"/>
<path d="M56.5962 107.351C63.1152 123.395 71.3182 138.713 81.0892 153.011C81.6302 153.803 82.9312 153.054 82.3842 152.254C72.6902 138.068 64.5102 122.871 58.0432 106.952C57.6842 106.069 56.2332 106.455 56.5972 107.351H56.5962Z" fill="#D94B34"/>
<path d="M68.1921 148.184C72.0261 136.29 74.3601 123.959 74.9531 111.471C74.9851 110.793 74.1251 110.519 73.6731 110.941C69.6581 114.677 64.4861 117.265 61.3001 121.849C59.4031 124.578 58.0951 127.846 56.5841 130.802L51.4531 140.837C51.0121 141.699 52.2131 142.399 52.7481 141.594C59.6381 131.224 67.4301 121.511 75.5231 112.061C76.1481 111.331 75.0921 110.266 74.4621 111C66.2871 120.546 58.4131 130.361 51.4531 140.836L52.7481 141.594L57.6551 131.995C59.1921 128.988 60.5411 125.728 62.3931 122.903C65.4301 118.271 70.7551 115.702 74.7321 112.001L73.4521 111.471C72.8661 123.829 70.5381 136.016 66.7441 147.785C66.4471 148.706 67.8951 149.1 68.1901 148.184H68.1921Z" fill="#D94B34"/>
<path d="M52.6691 120.978C58.6361 125.34 65.1201 128.9 71.9871 131.63L71.4361 130.907C71.6531 132.603 71.8711 134.3 72.0881 135.996L72.4591 135.348C67.6541 138.154 63.4051 141.794 59.9101 146.124C59.3091 146.868 60.3641 147.936 60.9711 147.185C64.3911 142.949 68.5151 139.39 73.2171 136.644C73.4231 136.524 73.6211 136.249 73.5881 135.996C73.3711 134.3 73.1531 132.603 72.9361 130.907C72.8891 130.54 72.7281 130.32 72.3851 130.184C65.6441 127.504 59.2811 123.964 53.4261 119.683C52.6461 119.113 51.8971 120.414 52.6691 120.978Z" fill="#D94B34"/>
<path d="M39.2142 149.918L42.7142 145.604C43.3102 144.869 43.9021 144.13 44.5031 143.399C44.8611 142.964 45.2602 142.41 45.8852 142.444C46.8022 142.493 47.6702 143.359 48.4022 143.833C49.3042 144.417 50.3522 144.865 51.4282 144.498L50.5052 143.575C49.4762 146.695 47.4952 149.475 44.8562 151.439L45.4341 151.363C43.1451 150.924 41.0202 149.992 39.0622 148.739C38.2462 148.217 37.4931 149.515 38.3051 150.034C39.6811 150.914 41.1502 151.648 42.6942 152.185C43.4542 152.449 44.3262 152.774 45.1352 152.823C45.8042 152.863 46.5382 152.027 47.0072 151.606C49.2972 149.552 50.9902 146.889 51.9512 143.974C52.1252 143.447 51.5602 142.87 51.0282 143.051C50.0632 143.38 49.1192 142.512 48.3762 142.003C47.4782 141.388 46.4531 140.766 45.3181 140.993C44.6281 141.13 44.0781 141.584 43.6331 142.106C43.0341 142.807 42.4671 143.538 41.8871 144.255L38.1541 148.857C37.5511 149.6 38.6052 150.668 39.2142 149.918Z" fill="#D94B34"/>
<path d="M30.5482 187.307C37.1142 179.915 44.6032 173.398 52.8442 167.934C53.6452 167.403 52.8952 166.103 52.0872 166.639C43.7422 172.172 36.1372 178.76 29.4882 186.246C28.8492 186.966 29.9063 188.03 30.5493 187.307H30.5482Z" fill="#D94B34"/>
<path d="M63.6313 229.176C72.1083 221.397 81.1882 214.191 91.8162 209.582C92.4422 209.31 92.1992 208.38 91.6372 208.211C81.6462 205.205 71.6273 202.296 61.6222 199.336C59.1592 198.607 56.6962 197.875 54.2362 197.138C53.4272 196.895 52.3442 196.319 51.5132 196.569C50.4982 196.875 49.3932 197.795 48.4842 198.348C44.6132 200.701 40.8852 203.282 37.3092 206.062C33.2042 209.253 29.3223 212.718 25.6713 216.419C25.2563 216.839 25.4753 217.491 26.0023 217.673C38.5373 221.986 51.4592 224.933 64.3312 228.03C65.2692 228.256 65.6693 226.81 64.7303 226.584C51.8573 223.487 38.9362 220.54 26.4012 216.227L26.7322 217.481C33.0152 211.112 39.9952 205.461 47.5612 200.685C48.4282 200.138 49.3012 199.603 50.1822 199.079C50.6172 198.82 51.0532 198.526 51.5082 198.302C52.2052 197.959 52.6102 198.217 53.3612 198.443C55.7422 199.157 58.1252 199.866 60.5092 200.572C65.3502 202.005 70.1942 203.426 75.0382 204.85C80.4422 206.44 85.8442 208.035 91.2393 209.658L91.0602 208.287C80.3212 212.944 71.1363 220.256 62.5713 228.116C61.8583 228.77 62.9213 229.829 63.6323 229.177L63.6313 229.176Z" fill="#D94B34"/>
<path d="M71.7602 369.996C71.5522 364.716 71.3192 359.438 71.0842 354.159C70.7522 346.692 70.4112 339.225 70.0682 331.758C69.6472 322.573 69.2232 313.389 68.8012 304.204C68.3262 293.873 67.8542 283.541 67.3862 273.209C66.8932 262.323 66.4062 251.436 65.9272 240.549C65.4432 229.546 64.9692 218.543 64.5092 207.539C64.0692 197.01 63.6422 186.481 63.2372 175.951C62.8732 166.478 62.5262 157.004 62.2132 147.529C61.9502 139.563 61.7092 131.596 61.5252 123.628C61.3902 117.757 61.2752 111.884 61.2782 106.011C61.2782 104.961 61.2842 103.911 61.2962 102.861C61.3072 101.895 59.8072 101.895 59.7962 102.861C59.7362 108.142 59.8202 113.425 59.9212 118.705C60.0652 126.175 60.2752 133.644 60.5072 141.112C60.7932 150.299 61.1182 159.485 61.4612 168.67C61.8472 179.003 62.2582 189.336 62.6832 199.667C63.1312 210.555 63.5952 221.442 64.0682 232.328C64.5472 243.331 65.0362 254.334 65.5312 265.337C66.0052 275.866 66.4852 286.395 66.9682 296.923C67.4022 306.396 67.8392 315.868 68.2742 325.341C68.6402 333.306 69.0062 341.271 69.3642 349.236C69.6282 355.106 69.8902 360.975 70.1332 366.846C70.1762 367.895 70.2192 368.945 70.2602 369.994C70.2982 370.956 71.7982 370.961 71.7602 369.994V369.996Z" fill="#D94B34"/>
<path d="M52.3201 167.676C63.8481 172.195 75.3771 176.713 86.9051 181.232V179.786C79.3321 182.76 73.0911 188.031 67.3811 193.706C66.6351 194.448 65.8961 195.197 65.1611 195.951C64.8191 196.302 64.4781 196.653 64.1371 197.006C63.8301 197.324 63.3661 198.065 62.9741 198.212C62.2141 198.499 60.6981 197.944 59.9181 197.756C58.7681 197.479 57.6381 197.121 56.5271 196.717C52.3251 195.19 48.3611 193.078 44.1761 191.501C39.2611 189.649 34.1821 188.275 29.0121 187.357C28.0681 187.189 27.6631 188.635 28.6131 188.803C33.2431 189.626 37.8001 190.81 42.2331 192.382C46.5531 193.914 50.6231 196 54.8771 197.687C56.9381 198.504 59.0601 199.199 61.2531 199.556C61.9041 199.662 62.9891 200.003 63.5941 199.693C64.3941 199.283 65.1561 198.11 65.7821 197.465C68.7101 194.451 71.6991 191.484 74.9361 188.799C78.6711 185.702 82.7731 183.014 87.3041 181.234C88.0121 180.956 88.0141 180.066 87.3041 179.788C75.7761 175.269 64.2471 170.751 52.7191 166.232C51.8201 165.88 51.4301 167.33 52.3201 167.678V167.676Z" fill="#D94B34"/>
<path d="M33.003 162.249C39.228 174.347 44.961 186.694 50.175 199.261C50.54 200.14 51.992 199.754 51.621 198.862C46.357 186.175 40.582 173.706 34.298 161.492C33.856 160.633 32.561 161.391 33.003 162.249Z" fill="#D94B34"/>
<path d="M26.9333 216.831C28.9083 204.928 36.4952 194.978 40.0512 183.585C42.7882 174.816 44.9602 165.874 47.5402 157.058C48.8082 152.724 50.0392 148.29 51.8762 144.154C52.2642 143.279 50.9722 142.515 50.5812 143.397C49.0112 146.932 47.8863 150.668 46.7743 154.366C45.3183 159.207 43.9802 164.082 42.6412 168.956C41.4582 173.262 40.3002 177.578 39.0132 181.854C37.4722 186.976 35.3193 191.799 32.9723 196.598C29.8613 202.957 26.6572 209.381 25.4872 216.432C25.3302 217.376 26.7763 217.782 26.9333 216.831Z" fill="#D94B34"/>
<path d="M34.1261 161.701C40.6171 163.423 46.9101 165.795 52.9171 168.798C53.7781 169.229 54.5391 167.935 53.6741 167.503C47.5541 164.442 41.1391 162.009 34.5251 160.255C33.5911 160.007 33.1931 161.454 34.1261 161.701Z" fill="#D94B34"/>
<path d="M41.0521 177.898C52.2631 182.209 63.5961 186.197 75.0371 189.856C75.9591 190.151 76.3531 188.703 75.4361 188.41C63.9951 184.75 52.6631 180.763 41.4511 176.452C40.5491 176.105 40.1591 177.555 41.0521 177.898Z" fill="#D94B34"/>
<path d="M73.0601 189.911C80.2771 195.167 86.1921 201.981 91.9841 208.712C92.5361 209.354 93.6331 208.512 93.1621 207.803C86.0811 197.148 78.9991 186.492 71.9181 175.837C71.3861 175.037 70.0861 175.787 70.6231 176.594C77.7041 187.249 84.7861 197.905 91.8671 208.56L93.0451 207.651C87.1611 200.812 81.1481 193.954 73.8171 188.615C73.0361 188.046 72.2861 189.348 73.0601 189.911Z" fill="#D94B34"/>
<path d="M61.749 172.173C68.599 166.201 75.449 160.228 82.299 154.256C83.028 153.62 81.963 152.563 81.238 153.195C74.388 159.167 67.538 165.14 60.688 171.112C59.959 171.748 61.024 172.805 61.749 172.173Z" fill="#D94B34"/>
<path d="M36.7011 243.364C40.4771 240.949 44.2531 238.535 48.0281 236.12L50.9111 234.276C51.3431 234 51.5691 233.821 52.0711 233.859C52.6841 233.905 53.3531 234.158 53.9561 234.297C56.1411 234.803 58.3281 235.301 60.5161 235.799C69.0041 237.729 77.4991 239.645 85.8991 241.937C90.7551 243.262 95.5731 244.718 100.337 246.345L100.158 244.974C88.0261 250.995 76.1201 257.46 63.9881 263.482H64.7451C50.8301 256.95 35.7471 253.525 20.4911 252.092L20.8701 253.49C24.7521 251.006 28.6191 248.497 32.4961 246.004C34.1351 244.95 35.7831 243.506 37.7951 243.337C39.4701 243.196 41.1671 243.621 42.7561 244.105C46.2951 245.184 49.7831 246.594 53.2591 247.861C57.3941 249.368 61.4951 250.966 65.6521 252.41C70.3901 254.056 75.2031 255.484 80.1461 256.366C81.0901 256.535 81.4951 255.089 80.5451 254.92C71.4711 253.3 62.9241 249.813 54.3101 246.653C50.6761 245.32 47.0261 243.865 43.3311 242.713C41.7571 242.223 40.1021 241.819 38.4431 241.815C36.7321 241.811 35.4031 242.36 33.9831 243.268C29.3521 246.232 24.7431 249.231 20.1121 252.195C19.4551 252.616 19.7621 253.524 20.4911 253.593C31.5671 254.634 42.5661 256.729 53.0971 260.36C55.7861 261.287 58.4441 262.312 61.0521 263.447C61.6151 263.692 62.1751 263.942 62.7341 264.196C63.1411 264.382 63.7271 264.792 64.1671 264.853C64.6381 264.919 64.9821 264.66 65.3971 264.454C66.1231 264.093 66.8471 263.73 67.5711 263.367C72.8271 260.725 78.0461 258.01 83.2661 255.298C89.1301 252.251 94.9951 249.209 100.914 246.271C101.532 245.964 101.301 245.094 100.735 244.9C92.1561 241.968 83.3981 239.623 74.5841 237.512C70.2681 236.479 65.9411 235.496 61.6141 234.512C59.3501 233.997 57.0871 233.483 54.8251 232.96C53.8721 232.74 52.6411 232.225 51.6621 232.234C50.8391 232.242 50.0081 233.075 49.3301 233.508C44.8681 236.362 40.4051 239.216 35.9431 242.069C35.1321 242.588 35.8841 243.886 36.7001 243.364H36.7011Z" fill="#D94B34"/>
<path d="M25.1382 219.062C34.6672 232.418 42.5492 247.091 46.9532 262.958C48.2052 267.47 49.1632 272.057 49.8222 276.693C49.8582 276.943 50.1192 277.153 50.3462 277.217C69.7162 282.627 89.3802 286.949 109.233 290.161V288.715C103.129 290.776 97.0242 292.836 90.9202 294.897C84.8952 296.931 78.8812 299.292 72.7232 300.889C69.6392 301.689 66.4952 302.062 63.3332 301.527C60.3322 301.019 57.4702 299.905 54.5932 298.949C48.8252 297.033 42.9212 295.512 36.9182 294.538C30.3242 293.469 23.6482 293.068 16.9732 293.334L17.3522 294.732C24.4212 291.324 31.1902 287.346 38.1442 283.718C41.6512 281.888 45.2082 280.14 48.8672 278.632C49.5482 278.351 50.5572 278.159 51.1442 277.723C51.7452 277.277 52.0722 276.248 52.4292 275.603C53.4122 273.823 54.4092 272.051 55.4212 270.287C63.3592 256.449 72.2292 243.219 81.7822 230.449C86.5582 224.064 91.3562 217.365 92.9592 209.396C93.1492 208.453 91.7032 208.05 91.5132 208.997C90.0932 216.061 86.0822 222.117 81.8732 227.828C77.2942 234.042 72.6982 240.226 68.3832 246.63C63.9692 253.181 59.7632 259.871 55.7732 266.687C54.7852 268.374 53.8112 270.069 52.8502 271.772C52.3892 272.589 51.9302 273.408 51.4752 274.229C51.0612 274.976 50.6742 276.163 49.9362 276.596C49.1942 277.031 48.2482 277.273 47.4552 277.609C46.5502 277.992 45.6512 278.388 44.7572 278.796C43.0292 279.584 41.3212 280.414 39.6262 281.271C31.8772 285.19 24.4202 289.664 16.5952 293.436C15.9212 293.761 16.2532 294.862 16.9742 294.834C29.2572 294.344 41.3932 296.262 53.0752 300.028C56.0432 300.985 58.9652 302.145 62.0222 302.796C64.8922 303.408 67.7692 303.405 70.6532 302.885C73.6262 302.349 76.4902 301.348 79.3452 300.384C82.3972 299.354 85.4492 298.323 88.5022 297.293C95.5462 294.915 102.589 292.538 109.633 290.16C110.266 289.946 110.422 288.841 109.633 288.714C89.7802 285.502 70.1162 281.179 50.7462 275.77L51.2702 276.294C48.9462 259.943 42.7212 244.413 34.2892 230.279C31.8422 226.178 29.2082 222.192 26.4352 218.304C25.8792 217.525 24.5782 218.273 25.1402 219.061L25.1382 219.062Z" fill="#D94B34"/>
<path d="M66.2902 148.073C64.8302 155.72 63.3702 163.367 61.9112 171.014C61.7312 171.957 63.1762 172.361 63.3572 171.413L67.7362 148.472C67.9162 147.529 66.4712 147.125 66.2902 148.073Z" fill="#D94B34"/>
<path d="M81.026 154.457C79.039 161.911 77.655 169.507 76.866 177.181C76.767 178.14 78.268 178.133 78.366 177.181C79.141 169.641 80.52 162.18 82.472 154.856C82.721 153.922 81.274 153.524 81.026 154.457Z" fill="#D94B34"/>
<path d="M28.8491 203.453C31.6791 204.139 34.5101 204.826 37.3401 205.512C38.2781 205.739 38.6781 204.293 37.7391 204.066C34.9091 203.38 32.0781 202.693 29.2481 202.007C28.3101 201.78 27.9101 203.226 28.8491 203.453Z" fill="#D94B34"/>
<path d="M51.813 210.717C56.326 211.481 60.838 212.244 65.351 213.008C66.295 213.168 66.701 211.723 65.75 211.562C61.237 210.798 56.725 210.035 52.212 209.271C51.268 209.111 50.862 210.556 51.813 210.717Z" fill="#D94B34"/>
<path d="M50.294 197.191C61.156 210.742 69.954 225.955 76.255 242.141C78.039 246.724 79.619 251.383 81.007 256.1C81.279 257.024 82.727 256.631 82.453 255.701C77.497 238.847 69.984 222.76 60.202 208.165C57.428 204.027 54.47 200.017 51.354 196.13C50.75 195.377 49.695 196.444 50.293 197.191H50.294Z" fill="#D94B34"/>
<path d="M49.7861 278.05C56.8191 285.754 62.9671 294.211 68.1351 303.272C68.6131 304.11 69.9101 303.356 69.4301 302.515C64.2011 293.347 57.9632 284.785 50.8472 276.99C50.1952 276.276 49.1361 277.339 49.7861 278.051V278.05Z" fill="#D94B34"/>
<path d="M69.3911 63.99C67.6921 65.36 66.5171 67.246 66.0081 69.368C65.9331 69.68 66.0541 70.058 66.3531 70.215C67.7941 70.972 69.2351 71.729 70.6761 72.486C71.0391 72.676 71.4851 72.577 71.7021 72.217L75.0341 66.703C75.2411 66.361 75.1152 65.873 74.7652 65.677C69.2222 62.565 63.6782 59.453 58.1352 56.341C57.7392 56.119 57.1312 56.302 57.0332 56.789L56.7462 58.223C56.6452 58.727 57.0912 59.368 57.6692 59.146C59.2302 58.546 60.0832 60.796 59.5502 61.976C58.8842 63.45 57.2552 64.274 55.8992 64.993L56.8082 66.171C59.4492 64.122 62.0901 62.073 64.7321 60.024C65.4941 59.433 64.4252 58.378 63.6712 58.963C61.0302 61.012 58.3892 63.061 55.7472 65.11C55.0502 65.65 55.9372 66.669 56.6562 66.288C58.6132 65.25 61.1852 63.725 61.2522 61.204C61.3052 59.196 59.4232 56.871 57.2702 57.699L58.1931 58.622L58.4802 57.188L57.3781 57.636C62.9211 60.748 68.4651 63.86 74.0081 66.972L73.7392 65.946L70.4072 71.46L71.4332 71.191C69.9922 70.434 68.5512 69.677 67.1102 68.92L67.4552 69.767C67.9102 67.871 68.9361 66.274 70.4521 65.051C71.2041 64.445 70.1361 63.39 69.3911 63.99Z" fill="#D94B34"/>
<path d="M76.705 179.777L76.697 184.286C76.695 185.117 77.975 185.324 78.17 184.485C78.547 182.868 78.925 181.251 79.302 179.634H77.8561C78.3191 180.786 78.7821 181.939 79.2441 183.091C79.4641 183.638 80.034 183.803 80.498 183.422C81.592 182.522 82.686 181.621 83.78 180.721C84.093 180.463 84.047 179.927 83.78 179.66C83.47 179.35 83.033 179.402 82.719 179.66C81.625 180.56 80.531 181.461 79.437 182.361L80.691 182.692C80.228 181.54 79.765 180.387 79.303 179.235C79.178 178.923 78.937 178.684 78.58 178.684C78.2601 178.684 77.931 178.916 77.857 179.235C77.48 180.852 77.102 182.469 76.725 184.086L78.198 184.285L78.206 179.776C78.208 178.811 76.708 178.809 76.706 179.776L76.705 179.777Z" fill="#D94B34"/>
</svg>
